<?xml version="1.0" encoding="iso-8859-1"?>
<!-- Generator: Adobe Illustrator 16.0.0, SVG Export Plug-In . SVG Version: 6.00 Build 0)  -->
<!DOCTYPE svg PUBLIC "-//W3C//DTD SVG 1.1//EN" "http://www.w3.org/Graphics/SVG/1.1/DTD/svg11.dtd">
<svg version="1.1" id="Capa_1" xmlns="http://www.w3.org/2000/svg" x="0px" y="0px"
	 width="55.999px" height="55.999px" viewBox="0 0 55.999 55.999"
	 style="enable-background:new 0 0 55.999 55.999;fill:white"
	 xml:space="preserve">
	<g id="Layer">
		<g id="Layer">
			<g id="Layer">
				<path id="Layer" fill-rule="evenodd" class="shp0" d="M49.33 48.08L6.67 48.08C2.99 48.08 0 45.09 0 41.41L0 13.42C0 9.74 2.99 6.75 6.67 6.75L49.33 6.75C53.01 6.75 56 9.74 56 13.42L56 41.41C56 45.09 53.01 48.08 49.33 48.08ZM6.67 8.75C4.09 8.75 2 10.85 2 13.42L2 41.41C2 43.99 4.1 46.08 6.67 46.08L49.33 46.08C51.91 46.08 54 43.99 54 41.41L54 13.42C54 10.85 51.9 8.75 49.33 8.75L6.67 8.75Z" />
			</g>
		</g>
	</g>
	<g id="Layer">
	</g>
	<g id="Layer">
	</g>
	<g id="Layer">
	</g>
	<g id="Layer">
	</g>
	<g id="Layer">
	</g>
	<g id="Layer">
	</g>
	<g id="Layer">
	</g>
	<g id="Layer">
	</g>
	<g id="Layer">
	</g>
	<g id="Layer">
	</g>
	<g id="Layer">
	</g>
	<g id="Layer">
	</g>
	<g id="Layer">
	</g>
	<g id="Layer">
	</g>
	<g id="Layer">
	</g>
</svg>