<?xml version="1.0" encoding="utf-8"?>
<!DOCTYPE svg PUBLIC "-//W3C//DTD SVG 1.1//EN" "http://www.w3.org/Graphics/SVG/1.1/DTD/svg11.dtd">
<svg version="1.1" xmlns="http://www.w3.org/2000/svg"  x="0px" y="0px"
     viewBox="0 0 1000 1000" enable-background="new 0 0 1000 1000" xml:space="preserve"
    style="fill:white">
<g><path d="M851.1,80.4H148.9C72.2,80.4,10,120.3,10,169.5v450.3c0,49.2,62.2,89.1,138.9,89.1h351.6L777,919.6l-14.8-210.7h89c76.7,0,138.9-39.9,138.9-89.1V169.5C990,120.3,927.8,80.4,851.1,80.4z M221.7,477.7c-47.2,0-85.5-38.3-85.5-85.5c0-47.2,38.3-85.5,85.5-85.5c47.2,0,85.5,38.3,85.5,85.5C307.2,439.4,268.9,477.7,221.7,477.7z M405.7,392c0-47.2,38.3-85.5,85.5-85.5c47.2,0,85.5,38.3,85.5,85.5c0,47.2-38.3,85.5-85.5,85.5C443.9,477.5,405.7,439.2,405.7,392z M768.1,476.4c-47.2,0-85.5-38.3-85.5-85.5c0-47.2,38.3-85.5,85.5-85.5c47.2,0,85.5,38.3,85.5,85.5C853.6,438.1,815.4,476.4,768.1,476.4z"/></g>
</svg>