<?xml version="1.0" standalone="no"?>
<!DOCTYPE svg PUBLIC "-//W3C//DTD SVG 20010904//EN"
 "http://www.w3.org/TR/2001/REC-SVG-20010904/DTD/svg10.dtd">
<svg version="1.0" xmlns="http://www.w3.org/2000/svg"
 width="225.000000pt" height="225.000000pt" viewBox="0 0 225.000000 225.000000"
 preserveAspectRatio="xMidYMid meet">
<metadata>
Created by potrace 1.15, written by Peter Selinger 2001-2017
</metadata>
<g transform="translate(0.000000,225.000000) scale(0.100000,-0.100000)"
fill="#000000" stroke="none">
<path d="M1581 1933 c-37 -21 -209 -186 -635 -611 l-585 -583 -94 -283 -95
-284 283 95 283 94 589 583 c616 610 630 626 641 721 6 62 -21 136 -74 194
-91 101 -210 129 -313 74z m-78 -441 l87 -87 -463 -462 -462 -461 -138 -45
c-76 -25 -137 -42 -135 -38 2 4 23 67 48 141 l45 133 460 453 c253 250 462
454 465 454 3 0 45 -39 93 -88z"/>
</g>
</svg>
