<svg height="384pt" viewBox="0 0 384 384" width="384pt" xmlns="http://www.w3.org/2000/svg"><path d="m96 0c-26.472656 0-48 21.527344-48 48 0 12.304688 4.6875 23.496094 12.320312 32-7.632812 8.503906-12.320312 19.695312-12.320312 32v32h32v-32c0-8.824219 7.175781-16 16-16s16 7.175781 16 16v32h32v-32c0-12.304688-4.6875-23.496094-12.320312-32 7.632812-8.503906 12.320312-19.695312 12.320312-32 0-26.472656-21.527344-48-48-48zm0 32c8.824219 0 16 7.175781 16 16s-7.175781 16-16 16-16-7.175781-16-16 7.175781-16 16-16zm0 0"/><path d="m240 144h32v-32c0-8.824219 7.175781-16 16-16s16 7.175781 16 16v32h32v-32c0-12.304688-4.6875-23.496094-12.320312-32 7.632812-8.503906 12.320312-19.695312 12.320312-32 0-26.472656-21.527344-48-48-48s-48 21.527344-48 48c0 12.304688 4.6875 23.496094 12.320312 32-7.632812 8.503906-12.320312 19.695312-12.320312 32zm48-112c8.824219 0 16 7.175781 16 16s-7.175781 16-16 16-16-7.175781-16-16 7.175781-16 16-16zm0 0"/><path d="m48 240c-26.472656 0-48 21.527344-48 48 0 12.304688 4.6875 23.496094 12.320312 32-7.632812 8.503906-12.320312 19.695312-12.320312 32v32h32v-32c0-8.824219 7.175781-16 16-16s16 7.175781 16 16v32h32v-32c0-12.304688-4.6875-23.496094-12.320312-32 7.632812-8.503906 12.320312-19.695312 12.320312-32 0-26.472656-21.527344-48-48-48zm0 32c8.824219 0 16 7.175781 16 16s-7.175781 16-16 16-16-7.175781-16-16 7.175781-16 16-16zm0 0"/><path d="m336 240c-26.472656 0-48 21.527344-48 48 0 12.304688 4.6875 23.496094 12.320312 32-7.632812 8.503906-12.320312 19.695312-12.320312 32v32h32v-32c0-8.824219 7.175781-16 16-16s16 7.175781 16 16v32h32v-32c0-12.304688-4.6875-23.496094-12.320312-32 7.632812-8.503906 12.320312-19.695312 12.320312-32 0-26.472656-21.527344-48-48-48zm0 32c8.824219 0 16 7.175781 16 16s-7.175781 16-16 16-16-7.175781-16-16 7.175781-16 16-16zm0 0"/><path d="m192 240c-26.472656 0-48 21.527344-48 48 0 12.304688 4.6875 23.496094 12.320312 32-7.632812 8.503906-12.320312 19.695312-12.320312 32v32h32v-32c0-8.824219 7.175781-16 16-16s16 7.175781 16 16v32h32v-32c0-12.304688-4.6875-23.496094-12.320312-32 7.632812-8.503906 12.320312-19.695312 12.320312-32 0-26.472656-21.527344-48-48-48zm0 32c8.824219 0 16 7.175781 16 16s-7.175781 16-16 16-16-7.175781-16-16 7.175781-16 16-16zm0 0"/><path d="m208 208h144v-32h-144v-80h-32v80h-144v32zm0 0"/></svg>