<?xml version="1.0" encoding="utf-8"?>
<!-- Svg Vector Icons : http://www.onlinewebfonts.com/icon -->
<!DOCTYPE svg PUBLIC "-//W3C//DTD SVG 1.1//EN" "http://www.w3.org/Graphics/SVG/1.1/DTD/svg11.dtd">
<svg version="1.1" xmlns="http://www.w3.org/2000/svg" x="0px" y="0px"
     viewBox="0 0 1000 1000" enable-background="new 0 0 1000 1000" xml:space="preserve" style="fill:white">
<metadata> Svg Vector Icons : http://www.onlinewebfonts.com/icon </metadata>
<g><g transform="translate(0.000000,56.000000) scale(0.100000,-0.100000)"><path d="M100-1290v-1750h700h700v1050v1050h1050h1050v700v700H1850H100V-1290z"/><path d="M6400-240v-700h1050h1050v-1050v-1050h700h700v1750V460H8150H6400V-240z"/><path d="M100-7590v-1750h1750h1750v700v700H2550H1500v1050v1050H800H100V-7590z"/><path d="M8500-6890v-1050H7450H6400v-700v-700h1750h1750v1750v1750h-700h-700V-6890z"/></g></g>
</svg>