<?xml version="1.0" encoding="iso-8859-1"?>
<!-- Generator: Adobe Illustrator 16.0.0, SVG Export Plug-In . SVG Version: 6.00 Build 0)  -->
<!DOCTYPE svg PUBLIC "-//W3C//DTD SVG 1.1//EN" "http://www.w3.org/Graphics/SVG/1.1/DTD/svg11.dtd">
<svg version="1.1" id="Capa_1" xmlns="http://www.w3.org/2000/svg" x="0px" y="0px"
	 width="33.75px" height="33.75px" viewBox="0 0 33.75 33.75" style="enable-background:new 0 0 33.75 33.75;"
	 xml:space="preserve"
>
<g>
	<path d="M32.25,6H1.5C0.671,6,0,6.671,0,7.5v18.75c0,0.829,0.671,1.5,1.5,1.5h30.75c0.829,0,1.5-0.671,1.5-1.5V7.5
		C33.75,6.671,33.079,6,32.25,6z M30.75,24.75H3v-8.223c0.068,0.01,0.138,0.015,0.208,0.015h27.5c0.015,0,0.028,0,0.042,0V24.75z
		 M30.75,13.542c-0.014,0-0.027,0-0.042,0h-27.5c-0.071,0-0.14,0.005-0.208,0.014V9h27.75V13.542z"/>
</g>
<g>
</g>
<g>
</g>
<g>
</g>
<g>
</g>
<g>
</g>
<g>
</g>
<g>
</g>
<g>
</g>
<g>
</g>
<g>
</g>
<g>
</g>
<g>
</g>
<g>
</g>
<g>
</g>
<g>
</g>
</svg>
