<?xml version="1.0" encoding="utf-8"?>
<!-- Svg Vector Icons : http://www.onlinewebfonts.com/icon -->
<!DOCTYPE svg PUBLIC "-//W3C//DTD SVG 1.1//EN" "http://www.w3.org/Graphics/SVG/1.1/DTD/svg11.dtd">
<svg version="1.1" xmlns="http://www.w3.org/2000/svg" x="0px" y="0px" viewBox="0 0 1000 1000"
     enable-background="new 0 0 1000 1000" xml:space="preserve">
<metadata> Svg Vector Icons : http://www.onlinewebfonts.com/icon </metadata>
<g><g><g><path d="M237.5,395h-175c-14.6,0-27,5.1-37.2,15.3C15.1,420.5,10,432.9,10,447.5v105c0,14.6,5.1,27,15.3,37.2C35.5,599.9,47.9,605,62.5,605h175c14.6,0,27-5.1,37.2-15.3c10.2-10.2,15.3-22.6,15.3-37.2v-105c0-14.6-5.1-27-15.3-37.2C264.5,400.1,252.1,395,237.5,395z"/><path d="M237.5,115h-175c-14.6,0-27,5.1-37.2,15.3C15.1,140.5,10,152.9,10,167.5v105c0,14.6,5.1,27,15.3,37.2C35.5,319.9,47.9,325,62.5,325h175c14.6,0,27-5.1,37.2-15.3c10.2-10.2,15.3-22.6,15.3-37.2v-105c0-14.6-5.1-27-15.3-37.2C264.5,120.1,252.1,115,237.5,115z"/><path d="M237.5,675h-175c-14.6,0-27,5.1-37.2,15.3C15.1,700.5,10,712.9,10,727.5v105c0,14.6,5.1,27,15.3,37.2C35.5,879.9,47.9,885,62.5,885h175c14.6,0,27-5.1,37.2-15.3c10.2-10.2,15.3-22.6,15.3-37.2v-105c0-14.6-5.1-27-15.3-37.2C264.5,680.1,252.1,675,237.5,675z"/><path d="M937.5,395h-525c-14.6,0-27,5.1-37.2,15.3c-10.2,10.2-15.3,22.6-15.3,37.2v105c0,14.6,5.1,27,15.3,37.2c10.2,10.2,22.6,15.3,37.2,15.3h525c14.6,0,27-5.1,37.2-15.3c10.2-10.2,15.3-22.6,15.3-37.2v-105c0-14.6-5.1-27-15.3-37.2C964.5,400.1,952.1,395,937.5,395z"/><path d="M937.5,675h-525c-14.6,0-27,5.1-37.2,15.3c-10.2,10.2-15.3,22.6-15.3,37.2v105c0,14.6,5.1,27,15.3,37.2c10.2,10.2,22.6,15.3,37.2,15.3h525c14.6,0,27-5.1,37.2-15.3c10.2-10.2,15.3-22.6,15.3-37.2v-105c0-14.6-5.1-27-15.3-37.2C964.5,680.1,952.1,675,937.5,675z"/><path d="M974.7,130.3c-10.2-10.2-22.6-15.3-37.2-15.3h-525c-14.6,0-27,5.1-37.2,15.3c-10.2,10.2-15.3,22.6-15.3,37.2v105c0,14.6,5.1,27,15.3,37.2c10.2,10.2,22.6,15.3,37.2,15.3h525c14.6,0,27-5.1,37.2-15.3c10.2-10.2,15.3-22.6,15.3-37.2v-105C990,152.9,984.9,140.5,974.7,130.3z"/></g></g><g></g><g></g><g></g><g></g><g></g><g></g><g></g><g></g><g></g><g></g><g></g><g></g><g></g><g></g><g></g></g>
</svg>