<?xml version="1.0" encoding="iso-8859-1"?>
<!-- Generator: Adobe Illustrator 18.1.1, SVG Export Plug-In . SVG Version: 6.00 Build 0)  -->
<svg version="1.1" id="Capa_1" xmlns="http://www.w3.org/2000/svg" x="0px" y="0px"
     viewBox="0 0 53.447 53.447" style="enable-background:new 0 0 53.447 53.447;" xml:space="preserve">
<g>
	<path style="fill:#030104;" d="M45.958,22.443c0.908-1.69,0.467-3.658-0.772-5.037c-0.336-0.324-0.751-0.582-1.189-0.803
		c1.026-1.509,1.249-3.418,0.407-5.164c-0.513-0.917-1.297-1.485-2.269-1.841c-0.323-0.118-0.657-0.188-0.994-0.243
		c0.403-1.668-0.226-3.542-1.642-4.614c-1.348-1.021-3.184-1.094-4.636-0.374c-0.061-0.556-0.225-1.108-0.512-1.649
		c-0.583-1.1-1.735-1.879-2.935-2.14c-1.679-0.365-3.24,0.3-4.231,1.491c-0.951-1.495-2.795-2.346-4.71-1.987
		c-1.761,0.331-2.911,1.71-3.264,3.293c-1.333-0.632-2.972-0.622-4.338,0.273c-1.7,1.114-2.237,3.094-1.753,4.829
		c-1.812-0.006-3.54,1.143-4.245,2.992c-0.472,1.238-0.215,2.724,0.491,3.816c0.125,0.192,0.28,0.348,0.429,0.511
		c-0.354,0.139-0.694,0.307-0.998,0.537c-1.173,0.885-1.826,2.251-1.788,3.721c0.038,1.5,0.909,2.832,2.154,3.62
		c0.196,0.124,0.405,0.219,0.62,0.302c-1.233,1.418-1.533,3.565-0.417,5.312c0.684,1.072,1.797,1.692,3.015,1.91
		c-0.651,1.525-0.132,3.282,1.032,4.44c1.171,1.166,3.031,1.357,4.541,0.858c0.138-0.046,0.273-0.101,0.408-0.155
		c0.022,0.33,0.09,0.661,0.213,0.995c-0.332,0.721-0.721,1.417-1.172,2.078c-0.83,1.217-2.031,2.206-3.174,3.116
		c-0.5,0.397-2.285,1.435-1.029,2.136c0.649,0.362,1.665,0.179,2.362,0.112c1.178-0.11,2.374-0.303,3.495-0.691
		c0.107-0.037,0.206-0.087,0.308-0.13c-0.025,0.052-0.051,0.103-0.082,0.166c-0.378,0.769-0.814,1.51-1.256,2.243
		c-0.796,1.32-1.636,2.617-2.514,3.885c-0.055,0.08-0.356,0.48-0.123,0.186c-0.158,0.201-0.277,0.354-0.287,0.623
		c-0.024,0.66,0.641,0.851,1.159,0.746c0.89-0.181,1.774-0.697,2.558-1.134c2.919-1.618,5.563-3.899,7.392-6.705
		c0.889-1.364,1.489-2.832,1.829-4.345c0.616,0.209,1.275,0.292,1.921,0.215c0.588-0.07,1.116-0.265,1.602-0.533
		c0.514,0.695,0.958,1.45,1.359,2.211c0.668,1.266,1.217,2.59,1.716,3.93c0.304,0.814,0.581,1.64,0.847,2.468
		c0.21,0.653,0.282,1.536,0.857,1.978c0.43,0.328,0.945-0.037,1.205-0.379c0.269-0.354,0.388-0.889,0.502-1.31
		c0.299-1.098,0.459-2.272,0.447-3.423c0.703,0.641,1.318,1.386,1.9,2.129c1.006,1.281,1.889,2.666,2.711,4.07
		c0.367,0.627,0.691,1.276,1.053,1.906c0.104,0.182,0.231,0.311,0.398,0.434c0.466,0.342,1.121-0.049,1.219-0.562
		c0.062-0.333,0.037-0.664-0.003-0.998c-0.353-2.962-1.381-5.897-2.541-8.628c-1.147-2.702-2.608-5.411-4.577-7.638
		c0.947-0.95,1.342-2.368,1.158-3.702c1.242,0.152,2.56-0.206,3.571-1.02c1.972-1.587,1.869-4.575,0.283-6.356
		C44.616,24.05,45.423,23.439,45.958,22.443z M37.105,34.232c-0.529,0.527-1.271,0.677-1.99,0.621
		c-0.332-0.026-0.658-0.191-0.939-0.356c-0.155-0.091-0.278-0.217-0.398-0.344c0.54-0.245,1.07-0.514,1.583-0.82
		c0.849-0.508,1.636-1.095,2.36-1.744C38.054,32.474,37.813,33.53,37.105,34.232z M33.155,32.809
		c-5.097,2.407-11.346,1.396-15.546-2.299c-4.257-3.744-5.864-9.742-4.207-15.138c1.618-5.267,6.391-9.237,11.841-9.95
		c4.118-0.539,8.321,0.747,11.436,3.487c3.097,2.723,4.848,6.69,4.871,10.801C41.518,25.336,38.233,30.412,33.155,32.809z
		 M24.871,35.651c-0.006,0.033-0.012,0.067-0.019,0.101c-0.066,0.326-0.137,0.609-0.294,0.908c-0.505,0.962-1.651,1.38-2.676,1.143
		c-0.483-0.111-0.984-0.404-1.277-0.811c-0.164-0.227-0.224-0.498-0.291-0.764c-0.009-0.042-0.015-0.069-0.021-0.097
		c-0.001-0.083,0.004-0.167,0.011-0.25c0.035-0.457,0.158-0.958,0.27-1.457c0.125,0.065,0.248,0.132,0.374,0.198
		c0.001,0.001,0.002,0,0.004,0.001C22.198,35.247,23.538,35.388,24.871,35.651z M41.162,11.392c0.659,0.183,1.168,0.439,1.515,1.057
		c0.001,0.001,0.002,0.002,0.003,0.003c0.422,0.88,0.317,1.77-0.077,2.554c-0.143-0.43-0.338-0.842-0.659-1.226
		c-0.057-0.067-0.102-0.144-0.157-0.212c-0.33-0.784-0.728-1.536-1.177-2.257C40.781,11.316,40.962,11.336,41.162,11.392z
		 M38.205,6.261c0.91,0.555,1.387,2.002,0.9,3c-0.609-0.703-1.287-1.35-2.018-1.942c-0.452-0.414-0.941-0.787-1.475-1.112
		C36.384,5.749,37.407,5.776,38.205,6.261z M30.887,2.506c1.185,0.196,2.017,1.246,2.027,2.382
		c-1.467-0.568-3.007-0.905-4.563-1.016C28.798,2.942,29.805,2.327,30.887,2.506z M22.836,2.052
		c1.372-0.404,2.527,0.491,2.886,1.697C25.028,3.8,24.34,3.918,23.669,4.124c-0.526,0.161-1.02,0.358-1.554,0.496
		c-0.329,0.085-0.654,0.185-0.977,0.291C20.867,3.691,21.53,2.438,22.836,2.052z M15.882,5.375c1.183-0.863,2.594-0.47,3.349,0.546
		c-0.1,0.057-0.203,0.107-0.302,0.167c-0.387,0.231-0.758,0.485-1.12,0.747c-0.333,0.145-0.662,0.297-0.979,0.464
		c-0.598,0.316-1.057,0.832-1.428,1.404C14.677,7.681,14.746,6.204,15.882,5.375z M10.803,12.001
		c0.432-1.319,1.844-1.727,3.026-1.357c-0.075,0.254-0.152,0.51-0.225,0.767c-0.687,1.13-1.237,2.341-1.632,3.607
		C10.905,14.482,10.418,13.176,10.803,12.001z M9.037,20.303c-0.196-0.843,0.215-1.826,0.895-2.34
		c0.37-0.279,0.806-0.422,1.259-0.488c-0.223,1.586-0.152,3.209,0.01,4.807c-0.115-0.016-0.232-0.029-0.343-0.054
		C9.897,22.015,9.253,21.231,9.037,20.303z M13.715,29.14c-0.064,0.048-0.126,0.07-0.202,0.103
		c-0.704,0.299-1.661-0.182-2.159-0.655c-1.286-1.223-0.696-3.151,0.708-3.866c0.49,1.452,1.182,2.83,2.059,4.084l0,0
		c-0.125,0.104-0.25,0.209-0.376,0.312C13.727,29.131,13.728,29.13,13.715,29.14z M17.417,34.57
		c-1.039,0.379-2.118,0.209-2.863-0.629c-0.345-0.39-0.479-0.957-0.494-1.459c-0.008-0.279,0.157-0.549,0.287-0.782
		c0.044-0.075,0.092-0.147,0.139-0.22c-0.006,0.014,0.084-0.115,0.111-0.146c0.246-0.28,0.571-0.561,0.866-0.862
		c0.715,0.78,1.51,1.491,2.37,2.119c0.27,0.257,0.559,0.491,0.862,0.707C18.411,33.875,18.106,34.318,17.417,34.57z M16.509,51.413
		c0-0.001-0.003,0.004-0.003,0.004C16.507,51.415,16.508,51.414,16.509,51.413C16.509,51.412,16.509,51.413,16.509,51.413z
		 M24.318,44.07c-1.668,2.255-3.997,4.112-6.489,5.434c0.246-0.386,0.491-0.773,0.734-1.156c0.9-1.419,1.828-2.873,2.447-4.441
		c0.204-0.518,0.359-1.176-0.062-1.631c-0.497-0.537-1.217-0.194-1.726,0.107c-0.765,0.454-1.743,0.608-2.606,0.756
		c-0.311,0.053-0.626,0.089-0.942,0.123c0.884-0.72,1.739-1.487,2.47-2.361c0.538-0.643,1.001-1.368,1.414-2.131
		c1.248,1.116,3.197,1.389,4.732,0.705c0.728-0.325,1.266-0.806,1.671-1.377c0.168,0.234,0.354,0.458,0.576,0.659
		c0.051,0.046,0.114,0.077,0.167,0.12C26.33,40.776,25.466,42.522,24.318,44.07z M31.548,36.684c-0.418,0.76-1.252,1.17-2.096,1.187
		c-0.863,0.017-1.634-0.485-2.07-1.207c-0.095-0.159-0.161-0.335-0.226-0.512c0.638-0.067,1.273-0.146,1.903-0.271
		c0.884-0.174,1.672-0.51,2.454-0.895c0.112-0.032,0.224-0.071,0.336-0.105c0.015,0.143,0.034,0.286,0.038,0.422
		C31.903,35.792,31.783,36.257,31.548,36.684z M39.103,38.554c2.061,3.056,3.492,6.546,4.48,10.085
		c0.033,0.118,0.057,0.239,0.088,0.357c-1.164-1.896-2.49-3.745-4.086-5.258c-0.463-0.438-1.039-0.969-1.713-1
		c-1.098-0.049-0.888,1.211-0.869,1.882c0.022,0.811-0.066,1.643-0.234,2.452c-0.18-0.549-0.351-1.1-0.546-1.643
		c-0.862-2.404-1.879-4.836-3.377-6.921c-0.034-0.048-0.07-0.096-0.106-0.144c0.15-0.164,0.304-0.323,0.436-0.51
		c0.278-0.394,0.456-0.863,0.567-1.342c0.489,0.206,1.006,0.311,1.54,0.354c0.752,0.059,1.492-0.13,2.154-0.472
		C38.046,37.08,38.602,37.812,39.103,38.554z M42.107,29.236c-0.438,0.434-1.051,0.625-1.652,0.638
		c-0.313,0.006-0.603-0.073-0.897-0.173c-0.015-0.005-0.027-0.014-0.042-0.02c0.471-0.59,0.899-1.212,1.282-1.861
		c0.471-0.693,0.88-1.422,1.242-2.174c0.068,0.057,0.141,0.106,0.206,0.171c0.001,0.001,0.001,0.002,0.002,0.003
		C43.154,26.832,43.054,28.295,42.107,29.236z M44.232,21.432c-0.261,0.55-0.69,0.89-1.194,1.104
		c0.243-1.339,0.292-2.727,0.195-4.09c0.202,0.111,0.391,0.231,0.538,0.373c0.001,0,0.001,0,0.002,0.001
		C44.419,19.542,44.658,20.534,44.232,21.432z"/>
</g>
<g>
</g>
<g>
</g>
<g>
</g>
<g>
</g>
<g>
</g>
<g>
</g>
<g>
</g>
<g>
</g>
<g>
</g>
<g>
</g>
<g>
</g>
<g>
</g>
<g>
</g>
<g>
</g>
<g>
</g>
</svg>
