<svg class="icon" style="width: 1em; height: 1em;vertical-align: middle;fill: black;overflow: hidden;"
     viewBox="0 0 1024 1024" version="1.1" xmlns="http://www.w3.org/2000/svg">
    <path d="M238.592 110.592l546.816 0c70.5792 0 128 57.4208 128 128 0 14.138368 11.460608 25.6 25.6 25.6s25.6-11.461632 25.6-25.6c0-98.81088-80.38912-179.2-179.2-179.2L238.592 59.392c-98.81088 0-179.2 80.38912-179.2 179.2l0 368.64c0 98.81088 80.38912 179.2 179.2 179.2l247.808 0 0 152.576c0 14.138368 11.461632 25.6 25.6 25.6s25.6-11.461632 25.6-25.6L537.6 786.432l247.808 0c98.81088 0 179.2-80.38912 179.2-179.2L964.608 422.912c0-14.138368-11.460608-25.6-25.6-25.6s-25.6 11.461632-25.6 25.6l0 184.32c0 70.5792-57.4208 128-128 128L238.592 735.232c-70.5792 0-128-57.4208-128-128L110.592 238.592C110.592 168.0128 168.0128 110.592 238.592 110.592zM325.302272 956.086272l102.4-102.4c9.997312-9.997312 9.997312-26.206208 0-36.20352-9.998336-9.997312-26.206208-9.997312-36.20352 0l-102.4 102.4c-9.997312 9.997312-9.997312 26.206208 0 36.20352C294.096896 961.084416 300.648448 963.584 307.2 963.584S320.303104 961.084416 325.302272 956.086272zM716.8 963.584c6.551552 0 13.103104-2.499584 18.102272-7.497728 9.997312-9.997312 9.997312-26.206208 0-36.20352l-102.4-102.4c-9.998336-9.997312-26.206208-9.997312-36.20352 0-9.997312 9.997312-9.997312 26.206208 0 36.20352l102.4 102.4C703.696896 961.084416 710.248448 963.584 716.8 963.584z"/>
</svg>