<?xml version='1.0' encoding='iso-8859-1'?>
<svg version="1.1" xmlns="http://www.w3.org/2000/svg" viewBox="0 0 137.144 137.144"
     enable-background="new 0 0 137.144 137.144">
    <g>
        <g>
            <path d="m51.486,95.947l10.286-10.268-20.573-20.536-10.287,10.269 20.574,20.535zm0-61.608l-30.86,30.804 10.286,10.269 10.287-10.269 20.573-20.536-10.286-10.268zm58.229-34.339h-82.286c-15.149,0-27.429,12.28-27.429,27.429v82.286c0,15.149 12.28,27.429 27.429,27.429h82.286c15.148,0 27.429-12.28 27.429-27.429v-82.286c0-15.149-12.28-27.429-27.429-27.429zm13.715,102.858c0,11.361-9.21,20.572-20.572,20.572h-68.572c-11.361,0-20.572-9.21-20.572-20.572v-68.572c0-11.362 9.21-20.572 20.572-20.572h68.572c11.361,0 20.572,9.21 20.572,20.572v68.572zm-48.059-17.179l10.287,10.268 20.574-20.535-10.287-10.269-20.574,20.536zm0-41.072l20.574,20.537 10.287,10.269 10.287-10.269-30.861-30.805-10.287,10.268z"/>
        </g>
    </g>
</svg>
