<?xml version="1.0" encoding="iso-8859-1"?>
<!-- Generator: Adobe Illustrator 18.0.0, SVG Export Plug-In . SVG Version: 6.00 Build 0)  -->
<!DOCTYPE svg PUBLIC "-//W3C//DTD SVG 1.1//EN" "http://www.w3.org/Graphics/SVG/1.1/DTD/svg11.dtd">
<svg version="1.1" id="Capa_1" xmlns="http://www.w3.org/2000/svg" x="0px" y="0px"
     viewBox="0 0 60 60" style="enable-background:new 0 0 60 60;fill:white" xml:space="preserve">
<g>
	<path style="" d="M56,54c-0.552,0-1-0.448-1-1v-2c0-0.552,0.448-1,1-1s1,0.448,1,1v2C57,53.552,56.552,54,56,54z
		 M56,48c-0.552,0-1-0.448-1-1v-2c0-0.552,0.448-1,1-1s1,0.448,1,1v2C57,47.552,56.552,48,56,48z M56,42c-0.552,0-1-0.448-1-1v-2
		c0-0.552,0.448-1,1-1s1,0.448,1,1v2C57,41.552,56.552,42,56,42z M56,36c-0.552,0-1-0.448-1-1v-2c0-0.552,0.448-1,1-1s1,0.448,1,1v2
		C57,35.552,56.552,36,56,36z"/>
	<path style="" d="M53,57h-2c-0.552,0-1-0.448-1-1s0.448-1,1-1h2c0.552,0,1,0.448,1,1S53.552,57,53,57z M47,57h-2
		c-0.552,0-1-0.448-1-1s0.448-1,1-1h2c0.552,0,1,0.448,1,1S47.552,57,47,57z M41,57h-2c-0.552,0-1-0.448-1-1s0.448-1,1-1h2
		c0.552,0,1,0.448,1,1S41.552,57,41,57z M35,57h-2c-0.552,0-1-0.448-1-1s0.448-1,1-1h2c0.552,0,1,0.448,1,1S35.552,57,35,57z"/>
	<path style="" d="M27,57h-2c-0.552,0-1-0.448-1-1s0.448-1,1-1h2c0.552,0,1,0.448,1,1S27.552,57,27,57z M21,57h-2
		c-0.552,0-1-0.448-1-1s0.448-1,1-1h2c0.552,0,1,0.448,1,1S21.552,57,21,57z M15,57h-2c-0.552,0-1-0.448-1-1s0.448-1,1-1h2
		c0.552,0,1,0.448,1,1S15.552,57,15,57z M9,57H7c-0.552,0-1-0.448-1-1s0.448-1,1-1h2c0.552,0,1,0.448,1,1S9.552,57,9,57z"/>
	<path style="" d="M4,54c-0.552,0-1-0.448-1-1v-2c0-0.552,0.448-1,1-1s1,0.448,1,1v2C5,53.552,4.552,54,4,54z M4,48
		c-0.552,0-1-0.448-1-1v-2c0-0.552,0.448-1,1-1s1,0.448,1,1v2C5,47.552,4.552,48,4,48z M4,42c-0.552,0-1-0.448-1-1v-2
		c0-0.552,0.448-1,1-1s1,0.448,1,1v2C5,41.552,4.552,42,4,42z M4,36c-0.552,0-1-0.448-1-1v-2c0-0.552,0.448-1,1-1s1,0.448,1,1v2
		C5,35.552,4.552,36,4,36z"/>
	<path style="" d="M4,28c-0.552,0-1-0.448-1-1v-2c0-0.552,0.448-1,1-1s1,0.448,1,1v2C5,27.552,4.552,28,4,28z M4,22
		c-0.552,0-1-0.448-1-1v-2c0-0.552,0.448-1,1-1s1,0.448,1,1v2C5,21.552,4.552,22,4,22z M4,16c-0.552,0-1-0.448-1-1v-2
		c0-0.552,0.448-1,1-1s1,0.448,1,1v2C5,15.552,4.552,16,4,16z M4,10c-0.552,0-1-0.448-1-1V7c0-0.552,0.448-1,1-1s1,0.448,1,1v2
		C5,9.552,4.552,10,4,10z"/>
	<path style="" d="M27,5h-2c-0.552,0-1-0.448-1-1s0.448-1,1-1h2c0.552,0,1,0.448,1,1S27.552,5,27,5z M21,5h-2
		c-0.552,0-1-0.448-1-1s0.448-1,1-1h2c0.552,0,1,0.448,1,1S21.552,5,21,5z M15,5h-2c-0.552,0-1-0.448-1-1s0.448-1,1-1h2
		c0.552,0,1,0.448,1,1S15.552,5,15,5z M9,5H7C6.448,5,6,4.552,6,4s0.448-1,1-1h2c0.552,0,1,0.448,1,1S9.552,5,9,5z"/>
	<path style="" d="M53,5h-2c-0.552,0-1-0.448-1-1s0.448-1,1-1h2c0.552,0,1,0.448,1,1S53.552,5,53,5z M47,5h-2
		c-0.552,0-1-0.448-1-1s0.448-1,1-1h2c0.552,0,1,0.448,1,1S47.552,5,47,5z M41,5h-2c-0.552,0-1-0.448-1-1s0.448-1,1-1h2
		c0.552,0,1,0.448,1,1S41.552,5,41,5z M35,5h-2c-0.552,0-1-0.448-1-1s0.448-1,1-1h2c0.552,0,1,0.448,1,1S35.552,5,35,5z"/>
	<path style="" d="M56,28c-0.552,0-1-0.448-1-1v-2c0-0.552,0.448-1,1-1s1,0.448,1,1v2C57,27.552,56.552,28,56,28z
		 M56,22c-0.552,0-1-0.448-1-1v-2c0-0.552,0.448-1,1-1s1,0.448,1,1v2C57,21.552,56.552,22,56,22z M56,16c-0.552,0-1-0.448-1-1v-2
		c0-0.552,0.448-1,1-1s1,0.448,1,1v2C57,15.552,56.552,16,56,16z M56,10c-0.552,0-1-0.448-1-1V7c0-0.552,0.448-1,1-1s1,0.448,1,1v2
		C57,9.552,56.552,10,56,10z"/>
	<g>
		<rect x="1" y="1" style="" width="6" height="6"/>
		<path style="" d="M8,8H0V0h8V8z M2,6h4V2H2V6z"/>
	</g>
	<g>
		<rect x="1" y="27" style="" width="6" height="6"/>
		<path style="" d="M8,34H0v-8h8V34z M2,32h4v-4H2V32z"/>
	</g>
	<g>
		<rect x="53" y="27" style="" width="6" height="6"/>
		<path style="" d="M60,34h-8v-8h8V34z M54,32h4v-4h-4V32z"/>
	</g>
	<g>
		<rect x="27" y="53" style="" width="6" height="6"/>
		<path style="" d="M34,60h-8v-8h8V60z M28,58h4v-4h-4V58z"/>
	</g>
	<g>
		<rect x="27" y="1" style="" width="6" height="6"/>
		<path style="" d="M34,8h-8V0h8V8z M28,6h4V2h-4V6z"/>
	</g>
	<g>
		<rect x="1" y="53" style="" width="6" height="6"/>
		<path style="" d="M8,60H0v-8h8V60z M2,58h4v-4H2V58z"/>
	</g>
	<g>
		<rect x="53" y="1" style="" width="6" height="6"/>
		<path style="" d="M60,8h-8V0h8V8z M54,6h4V2h-4V6z"/>
	</g>
	<g>
		<rect x="53" y="53" style="" width="6" height="6"/>
		<path style="" d="M60,60h-8v-8h8V60z M54,58h4v-4h-4V58z"/>
	</g>
</g>
<g>
</g>
<g>
</g>
<g>
</g>
<g>
</g>
<g>
</g>
<g>
</g>
<g>
</g>
<g>
</g>
<g>
</g>
<g>
</g>
<g>
</g>
<g>
</g>
<g>
</g>
<g>
</g>
<g>
</g>
</svg>
