<?xml version="1.0" encoding="utf-8"?>
<!-- Generator: Adobe Illustrator 23.0.1, SVG Export Plug-In . SVG Version: 6.00 Build 0)  -->
<svg version="1.1" xmlns="http://www.w3.org/2000/svg" x="0px" y="0px"
     viewBox="90 90 565 550" style="" xml:space="preserve">
<style type="text/css">
	.st0{fill:#FFFFFF;}
	.st1{fill:#1ABC9C;}
	.st2{fill:none;stroke:#1ABC9C;stroke-width:2.75;stroke-linecap:round;stroke-linejoin:round;stroke-miterlimit:10;}
	.st3{fill:none;stroke:#000000;stroke-width:3.5;stroke-linecap:round;stroke-linejoin:round;stroke-miterlimit:10;}
	.st4{fill:none;stroke:#1ABC9C;stroke-width:3.5;stroke-linecap:round;stroke-linejoin:round;stroke-miterlimit:10;}
	.st5{fill:none;stroke:#1ABC9C;stroke-width:2.75;stroke-linecap:round;stroke-linejoin:round;}
	.st6{fill:none;stroke:#1ABC9C;stroke-width:2.75;stroke-linecap:round;stroke-linejoin:round;stroke-dasharray:4.9912,4.9912;}
	.st7{fill:none;stroke:#1ABC9C;stroke-width:2.75;stroke-linecap:round;stroke-linejoin:round;stroke-dasharray:4.9719,4.9719;}
	.st8{fill:none;stroke:#1ABC9C;stroke-width:2.5;stroke-linecap:round;stroke-linejoin:round;stroke-miterlimit:10;}
	.st9{fill:none;stroke:#000000;stroke-width:2.75;stroke-linecap:round;stroke-linejoin:round;}
	.st10{fill:none;stroke:#000000;stroke-width:2.75;stroke-linecap:round;stroke-linejoin:round;stroke-dasharray:5.0401,7.0562;}
	.st11{fill:none;stroke:#000000;stroke-width:2.75;stroke-linecap:round;stroke-linejoin:round;stroke-dasharray:5.007,7.0098;}
	.st12{fill:none;stroke:#000000;stroke-width:2.5;stroke-linecap:round;stroke-linejoin:round;stroke-miterlimit:10;}
	.st13{fill:none;stroke:#1ABC9C;stroke-width:2.75;stroke-linecap:round;stroke-linejoin:round;stroke-dasharray:5.0401,7.0562;}
	.st14{fill:none;stroke:#1ABC9C;stroke-width:2.75;stroke-linecap:round;stroke-linejoin:round;stroke-dasharray:5.007,7.0098;}
</style>
<g id="N-DIMENSIONS">
</g>
<g id="N-TEXT">
</g>
<g id="AG-WALLS">
	<g id="POLYLINE_21_">
		<rect x="101.13" y="513.7" class="st4" width="109.38" height="41.02"/>
	</g>
	<g id="POLYLINE_20_">
		<rect x="538.63" y="513.7" class="st4" width="109.38" height="41.02"/>
	</g>
</g>
<g id="AG-DIAGRAM">
	<g id="POLYLINE_14_">
		<g>
			<g>
				<path class="st5" d="M524.96,513.7c-0.83,0-1.67,0-2.5,0"/>
				<path class="st13" d="M515.4,513.7c-7.23,0-14.46,0-21.68,0c-11.31,0-22.63,0-33.94,0c-13.75,0-27.51,0-41.26,0
					c-15.06,0-30.13,0-45.19,0c-15.21,0-30.41,0-45.62,0c-14.18,0-28.36,0-42.54,0c-12.03,0-24.05,0-36.08,0
					c-8.61,0-17.22,0-25.83,0c-2.25,0-4.49,0-6.74,0"/>
				<path class="st5" d="M212.99,513.82c-0.69,0.03-1.38,0.02-1.97-0.12c-0.16-0.04-0.36,0-0.52,0c0-0.83,0.01-1.67,0.02-2.5"/>
				<path class="st14" d="M210.66,504.19c0.15-5.26,0.4-10.52,0.78-15.78c0.56-7.77,1.41-15.54,2.52-23.25
					c1.19-8.28,2.69-16.52,4.48-24.7c1.78-8.15,3.88-16.22,6.25-24.22c2.29-7.74,4.9-15.39,7.75-22.95
					c2.87-7.63,6.05-15.14,9.47-22.53c3.47-7.51,7.24-14.87,11.26-22.1c4.03-7.25,8.36-14.33,12.92-21.25
					c4.6-6.97,9.48-13.76,14.6-20.36c5.12-6.61,10.52-13,16.14-19.19c5.59-6.15,11.43-12.08,17.48-17.79
					c6.03-5.68,12.29-11.13,18.75-16.32c6.39-5.14,12.99-10.03,19.76-14.65c6.71-4.58,13.61-8.9,20.66-12.95
					c6.94-3.98,14.04-7.7,21.27-11.13c7.41-3.52,14.97-6.77,22.64-9.65c7.84-2.95,15.77-5.6,23.81-7.94
					c7.56-2.21,15.22-4.08,22.93-5.66c8.29-1.7,16.65-3.05,25.05-4.07c7.97-0.96,15.98-1.57,24.01-1.9
					c1.92-0.08,3.84-0.13,5.76-0.17"/>
				<path class="st5" d="M522.46,185.59c0.83-0.01,1.67-0.01,2.5-0.02"/>
			</g>
		</g>
	</g>
	<g id="POLYLINE_6_">
		<polygon class="st8" points="376.9,396.74 354.12,396.74 395.13,347.85 436.15,396.74 413.36,396.74 413.36,442.32 376.9,442.32 
					"/>
	</g>
</g>
<g id="AG-DOORS">
	<g id="POLYLINE_4_">
		<rect x="524.96" y="185.57" class="st4" width="13.67" height="328.12"/>
	</g>
</g>
</svg>
