<?xml version="1.0" encoding="iso-8859-1"?>
<svg version="1.1" id="svgIcon" xmlns="http://www.w3.org/2000/svg" x="0px" y="0px"
     viewBox="0 0 512 512" style="enable-background:new 0 0 512 512;fill:white" xml:space="preserve">
<g>
	<g>
		<path d="M345.907,414.947l-37.926-198.882c-0.851-4.472-4.764-7.472-9.314-7.472h-85.333c-4.552,0-8.464,2.924-9.315,7.396
			l-37.926,198.958c-0.529,2.778,0.208,5.877,2.008,8.053c1.802,2.176,4.482,3.667,7.307,3.667h161.185
			c2.824,0,5.503-1.567,7.305-3.743C345.7,420.748,346.435,417.724,345.907,414.947z M186.865,407.704l34.315-180.148h69.639
			l34.316,180.148H186.865z"/>
	</g>
</g>
    <g>
	<g>
		<path d="M336.593,142.222H175.408c-5.236,0-10.533,3.625-10.533,8.866v37.926c0,5.241,5.296,10.097,10.533,10.097h161.185
			c5.235,0,8.43-4.856,8.43-10.097v-37.926C345.024,145.847,341.828,142.222,336.593,142.222z M326.061,180.148H183.839v-18.963
			h142.222V180.148z"/>
	</g>
</g>
    <g>
	<g>
		<path d="M412.259,500.35c-0.11-0.546-11.852-54.72-85.147-54.72H184.89c-73.297,0-85.037,54.174-85.149,54.72
			c-0.559,2.787,0.162,5.831,1.963,8.025c1.801,2.195,4.491,3.625,7.335,3.625h293.926c2.843,0,5.531-1.431,7.332-3.625
			C412.098,506.181,412.82,503.136,412.259,500.35z M123.222,493.037c7.121-11.852,23.871-28.444,61.668-28.444h142.222
			c37.824,0,54.565,16.593,61.676,28.444H123.222z"/>
	</g>
</g>
    <g>
	<g>
		<path d="M384.001,0h-47.407c-5.236,0-10.533,3.625-10.533,8.866v48.023h-37.926V8.866c0-5.241-3.195-8.866-8.43-8.866h-56.889
			c-5.236,0-10.533,3.625-10.533,8.866v48.023h-37.926V8.866c0-5.241-3.195-8.866-8.43-8.866h-47.407
			c-5.237,0-10.532,3.625-10.532,8.866v66.37c0,2.158,1.257,4.396,2.604,6.081l38.45,47.56c1.796,2.25,4.523,3.863,7.404,3.863
			h180.148c2.513,0,4.926-1.308,6.704-3.086l46.882-47.56c1.778-1.778,2.252-4.34,2.252-6.859V8.866
			C392.431,3.625,389.236,0,384.001,0z M373.468,71.31l-40.802,42.468H160.999l-34.05-41.866V18.963h28.444v46.792
			c0,5.241,5.296,10.097,10.532,10.097h56.889c5.235,0,8.43-4.856,8.43-10.097V18.963h37.926v46.792
			c0,5.241,5.296,10.097,10.532,10.097h56.889c5.235,0,8.43-4.856,8.43-10.097V18.963h28.444V71.31z"/>
	</g>
</g>
</svg>
