<?xml version="1.0" encoding="iso-8859-1"?>
<!-- Generator: Adobe Illustrator 17.1.0, SVG Export Plug-In . SVG Version: 6.00 Build 0)  -->
<!DOCTYPE svg PUBLIC "-//W3C//DTD SVG 1.1//EN" "http://www.w3.org/Graphics/SVG/1.1/DTD/svg11.dtd">
<svg version="1.1" id="Capa_1" xmlns="http://www.w3.org/2000/svg" x="0px" y="0px"
     viewBox="0 0 493.209 493.209" style="enable-background:new 0 0 493.209 493.209;" xml:space="preserve">
<path d="M492.953,218.542c-0.515-1.921-1.771-3.56-3.494-4.554l-154.592-89.254l1.749-3.029c2.071-3.587,0.842-8.174-2.745-10.245
	c-3.589-2.07-8.175-0.843-10.245,2.745l-5.493,9.514c-0.002,0.003-0.004,0.006-0.006,0.009l-63.639,110.226
	c-0.001,0.002-0.002,0.004-0.003,0.006l-7.88,13.648l-7.88-13.648c-0.001-0.002-0.002-0.004-0.003-0.006l-63.639-110.226
	c-0.002-0.003-0.004-0.006-0.006-0.009l-5.493-9.514c-2.072-3.588-6.66-4.814-10.245-2.745c-3.587,2.071-4.816,6.658-2.745,10.245
	l1.749,3.029L3.75,213.988c-1.723,0.994-2.979,2.633-3.494,4.554c-0.515,1.922-0.246,3.969,0.749,5.691l63.639,110.226
	c1.39,2.406,3.91,3.751,6.502,3.751c1.272,0,2.563-0.324,3.743-1.006l154.592-89.254l8.463,14.659l-62.87,108.894
	c-2.071,3.587-0.842,8.174,2.745,10.245c1.182,0.682,2.471,1.006,3.743,1.006c2.592,0,5.113-1.345,6.502-3.751l58.54-101.394
	l58.54,101.394c1.39,2.406,3.91,3.751,6.502,3.751c1.272,0,2.563-0.324,3.743-1.006c3.587-2.071,4.816-6.658,2.745-10.245
	l-62.87-108.894l8.463-14.659l154.592,89.254c1.182,0.682,2.471,1.006,3.743,1.006c2.592,0,5.113-1.345,6.502-3.751l63.639-110.226
	C493.199,222.511,493.468,220.464,492.953,218.542z M73.884,320.464l-56.139-97.235l122.663-70.819l42.83,74.183
	c1.389,2.406,3.91,3.751,6.502,3.751c1.272,0,2.563-0.324,3.743-1.006c3.587-2.071,4.816-6.658,2.745-10.245l-42.83-74.183
	l12.444-7.185l56.139,97.235L73.884,320.464z M419.325,320.464L271.228,234.96l56.139-97.235l12.444,7.185l-42.83,74.183
	c-2.071,3.587-0.842,8.174,2.745,10.245c1.182,0.682,2.471,1.006,3.743,1.006c2.592,0,5.113-1.345,6.502-3.751l42.83-74.183
	l122.663,70.819L419.325,320.464z"/>
    <g>
</g>
    <g>
</g>
    <g>
</g>
    <g>
</g>
    <g>
</g>
    <g>
</g>
    <g>
</g>
    <g>
</g>
    <g>
</g>
    <g>
</g>
    <g>
</g>
    <g>
</g>
    <g>
</g>
    <g>
</g>
    <g>
</g>
</svg>
