<svg height="512pt" style="fill:white;" viewBox="0 0 512.00006 512" width="512pt" xmlns="http://www.w3.org/2000/svg">
    <path d="m501.746094 129.992188c-6.636719-6.644532-15.792969-10.457032-25.117188-10.457032-23.78125 0-47.558594-.027344-71.335937-.027344-9.363281 0-18.171875 3.65625-24.808594 10.300782-6.621094 6.632812-10.265625 15.433594-10.25 24.777344l.046875 32.765624c.007812 5.613282 3.148438 10.753907 8.140625 13.320313 19.246094 9.898437 40.925781 15.128906 62.695313 15.128906 21.769531 0 43.449218-5.230469 62.699218-15.128906 4.988282-2.566406 8.128906-7.707031 8.136719-13.320313 0 0 .046875-32.738281.046875-32.738281.011719-9.242187-3.628906-17.988281-10.253906-24.621093zm0 0"/>
    <path d="m441.101562 108.6875c28.550782 0 51.773438-23.222656 51.773438-51.773438 0-28.546874-23.226562-51.773437-51.773438-51.773437-28.546874 0-51.773437 23.226563-51.773437 51.773437 0 28.550782 23.226563 51.773438 51.773437 51.773438zm0 0"/>
    <path d="m106.394531 415.378906c-23.78125 0-47.558593-.027344-71.335937-.027344-9.363282 0-18.171875 3.65625-24.804688 10.300782-6.625 6.628906-10.2656248 15.429687-10.253906 24.777344l.046875 32.765624c.0078125 5.613282 3.148437 10.75 8.140625 13.316407 19.246094 9.898437 40.925781 15.128906 62.695312 15.128906 21.769532 0 43.453126-5.230469 62.699219-15.128906 4.988281-2.566407 8.132813-7.707031 8.140625-13.316407l.042969-32.738281c.011719-9.246093-3.628906-17.988281-10.25-24.621093-6.636719-6.644532-15.792969-10.457032-25.121094-10.457032zm0 0"/>
    <path d="m70.867188 404.53125c28.550781 0 51.773437-23.226562 51.773437-51.773438 0-28.546874-23.226563-51.773437-51.773437-51.773437-28.546876 0-51.769532 23.226563-51.769532 51.773437 0 28.546876 23.222656 51.773438 51.769532 51.773438zm0 0"/>
    <path d="m43.207031 253.273438c.554688.058593 1.105469.089843 1.648438.089843 7.554687 0 14.050781-5.691406 14.894531-13.371093 10.679688-97.609376 92.777344-171.210938 190.964844-171.210938 4.394531 0 8.800781.15625 13.199218.460938l-15.210937 23.84375c-4.453125 6.988281-2.402344 16.257812 4.582031 20.714843 2.5 1.59375 5.292969 2.355469 8.050782 2.355469 4.953124 0 9.800781-2.453125 12.660156-6.9375l26.769531-41.96875c3.261719-5.113281 3.019531-11.449219-.074219-16.226562-.316406-.726563-.683594-1.4375-1.121094-2.121094l-26.765624-41.964844c-4.453126-6.984375-13.726563-9.039062-20.710938-4.582031-6.984375 4.453125-9.035156 13.726562-4.582031 20.710937l10.089843 15.820313c-2.296874-.070313-4.59375-.105469-6.886718-.105469-54.804688 0-107.457032 20.148438-148.265625 56.730469-40.804688 36.585937-66.5625 86.738281-72.523438 141.21875-.902343 8.234375 5.046875 15.640625 13.28125 16.542969zm0 0"/>
    <path d="m465.910156 258.375c-8.238281-.902344-15.640625 5.042969-16.542968 13.277344-10.679688 97.609375-92.773438 171.214844-190.964844 171.214844-4.394532 0-8.800782-.160157-13.199219-.460938l15.207031-23.847656c4.457032-6.984375 2.40625-16.257813-4.578125-20.714844-6.984375-4.453125-16.257812-2.402344-20.714843 4.582031l-26.765626 41.96875c-3.261718 5.113281-3.023437 11.453125.078126 16.230469.3125.726562.683593 1.4375 1.117187 2.117188l26.765625 41.96875c2.863281 4.484374 7.710938 6.9375 12.664062 6.933593 2.757813 0 5.550782-.761719 8.050782-2.355469 6.984375-4.453124 9.035156-13.726562 4.578125-20.710937l-10.085938-15.820313c2.292969.070313 4.589844.109376 6.882813.109376 54.804687 0 107.460937-20.148438 148.265625-56.734376 40.808593-36.585937 66.5625-86.738281 72.523437-141.214843.898438-8.238281-5.046875-15.640625-13.28125-16.542969zm0 0"/>
</svg>