<?xml version="1.0"?>
<svg xmlns="http://www.w3.org/2000/svg" width="50" height="50" viewBox="0 0 50 50" style="">
    <path style="text-indent:0;text-align:start;line-height:normal;text-transform:none;block-progression:tb;-inkscape-font-specification:Bitstream Vera Sans"
          d="M 4 6 L 4 7 L 4 11.96875 L 4 12 C 3.9359994 12.309157 3 16.838128 3 19.5 C 3 20.87865 3.2699667 22.196585 4 23.25 L 4 47 L 4 48 L 5 48 L 30.8125 48 L 31.21875 48 L 39.8125 48 L 40.21875 48 L 45 48 L 46 48 L 46 47 L 46 23.25 C 46.730033 22.196585 47 20.87865 47 19.5 C 47 16.867666 46.082814 12.46382 46 12.0625 A 1.0001 1.0001 0 0 0 46 12 L 46 11.96875 L 46 7 L 46 6 L 45 6 L 5 6 L 4 6 z M 6 8 L 44 8 L 44 11 L 39.1875 11 A 1.0001 1.0001 0 0 0 38.78125 11 L 32.21875 11 A 1.0001 1.0001 0 0 0 31.90625 10.96875 A 1.0001 1.0001 0 0 0 31.8125 11 L 25.21875 11 A 1.0001 1.0001 0 0 0 24.90625 10.96875 A 1.0001 1.0001 0 0 0 24.8125 11 L 18.21875 11 A 1.0001 1.0001 0 0 0 17.90625 10.96875 A 1.0001 1.0001 0 0 0 17.8125 11 L 11.3125 11 L 11.21875 11 A 1.0001 1.0001 0 0 0 10.90625 10.96875 A 1.0001 1.0001 0 0 0 10.8125 11 L 10.78125 11 L 6 11 L 6 8 z M 5.875 13 L 10 13 L 10 21.875 C 9.3608474 22.552227 8.4959241 23 7.5 23 C 6.7270121 23 6.2384549 22.804309 5.875 22.4375 A 1.0001 1.0001 0 0 0 5.625 22.125 C 5.2262833 21.549665 5 20.60635 5 19.5 C 5 17.529031 5.7030945 13.91605 5.875 13 z M 12 13 L 17 13 L 17 21.875 C 16.360847 22.552227 15.495924 23 14.5 23 C 13.504076 23 12.639153 22.552227 12 21.875 L 12 13 z M 19 13 L 24 13 L 24 21.875 C 23.360847 22.552227 22.495924 23 21.5 23 C 20.504076 23 19.639153 22.552227 19 21.875 L 19 13 z M 26 13 L 31 13 L 31 21.90625 C 30.362187 22.573925 29.492579 23 28.5 23 C 27.504076 23 26.639153 22.552227 26 21.875 L 26 13 z M 33 13 L 38 13 L 38 21.90625 C 37.362187 22.573925 36.492579 23 35.5 23 C 34.507421 23 33.637813 22.573925 33 21.90625 L 33 13 z M 40 13 L 44.125 13 C 44.296905 13.91605 45 17.529031 45 19.5 C 45 20.484881 44.820656 21.32435 44.5 21.90625 A 1.0001 1.0001 0 0 0 44.03125 22.53125 C 43.679721 22.839627 43.20777 23 42.5 23 C 41.507421 23 40.637813 22.573925 40 21.90625 L 40 13 z M 32 23.53125 C 32.95979 24.371052 34.121509 25 35.5 25 C 36.878491 25 38.04021 24.371052 39 23.53125 C 39.95979 24.371052 41.121509 25 42.5 25 C 43.031629 25 43.54329 24.907309 44 24.75 L 44 46 L 41 46 L 41 29 L 41 28 L 40 28 L 31 28 L 30 28 L 30 29 L 30 46 L 6 46 L 6 24.75 C 6.4567098 24.907309 6.9683706 25 7.5 25 C 8.8755351 25 10.040967 24.398823 11 23.5625 C 11.959033 24.398823 13.124465 25 14.5 25 C 15.875535 25 17.040967 24.398823 18 23.5625 C 18.959033 24.398823 20.124465 25 21.5 25 C 22.875535 25 24.040967 24.398823 25 23.5625 C 25.959033 24.398823 27.124465 25 28.5 25 C 29.878491 25 31.04021 24.371052 32 23.53125 z M 9 28 L 9 29 L 9 42 L 9 43 L 10 43 L 26 43 L 27 43 L 27 42 L 27 29 L 27 28 L 26 28 L 10 28 L 9 28 z M 11 30 L 25 30 L 25 41 L 11 41 L 11 30 z M 32 30 L 39 30 L 39 46 L 32 46 L 32 30 z"/>
</svg>
