<?xml version="1.0"?>
<svg xmlns="http://www.w3.org/2000/svg" width="50" height="50" viewBox="0 0 50 50" style="fill:white">
    <path style="text-indent:0;text-align:start;line-height:normal;text-transform:none;block-progression:tb;-inkscape-font-specification:Bitstream Vera Sans" d="M 44.5 0 C 41.474279 0 39 2.4742784 39 5.5 C 39 8.5257216 41.474279 11 44.5 11 C 47.525721 11 50 8.5257216 50 5.5 C 50 2.4742784 47.525721 0 44.5 0 z M 34.1875 1.34375 A 1.0001 1.0001 0 0 0 34.09375 1.375 A 1.0001 1.0001 0 0 0 33.625 3.09375 L 35.59375 5 L 24 5 C 17.389706 5 13.08234 7.3795489 10.5 10.0625 C 9.2088298 11.403976 8.3288977 12.808595 7.78125 14.03125 C 7.2336023 15.253905 7 16.229167 7 17 A 1.0001 1.0001 0 0 0 7 17.0625 C 3.0667983 17.561017 0 20.935134 0 25 C 0 29.406433 3.5935666 33 8 33 C 11.340585 33 14.21164 30.919124 15.40625 28 C 17.531454 28.033534 18.836754 28.317128 19.6875 28.6875 C 20.594873 29.082525 21.090657 29.583667 21.75 30.21875 C 22.409343 30.853833 23.242129 31.623822 24.59375 32.15625 C 25.945371 32.688678 27.75409 33 30.53125 33 L 35.59375 33 L 33.71875 34.9375 A 1.0001 1.0001 0 1 0 35.15625 36.3125 L 38.71875 32.625 A 1.0001 1.0001 0 0 0 38.6875 31.21875 L 35 27.65625 A 1.0001 1.0001 0 0 0 34.28125 27.34375 A 1.0001 1.0001 0 0 0 34.09375 27.375 A 1.0001 1.0001 0 0 0 33.625 29.09375 L 35.59375 31 L 30.53125 31 C 27.90841 31 26.340816 30.686322 25.3125 30.28125 C 24.284184 29.876178 23.763407 29.396167 23.125 28.78125 C 22.486593 28.166333 21.714814 27.417475 20.46875 26.875 C 19.389555 26.405172 17.952971 26.106481 15.9375 26.03125 C 15.982023 25.690755 16 25.352308 16 25 C 16 20.935134 12.933201 17.561017 9 17.0625 A 1.0001 1.0001 0 0 0 9 17 C 9 16.770833 9.1648352 15.871095 9.625 14.84375 C 10.085165 13.816405 10.82242 12.596024 11.9375 11.4375 C 14.16766 9.1204511 17.860294 7 24 7 L 35.59375 7 L 33.71875 8.9375 A 1.0001 1.0001 0 1 0 35.15625 10.3125 L 38.71875 6.625 A 1.0001 1.0001 0 0 0 38.6875 5.21875 L 35 1.65625 A 1.0001 1.0001 0 0 0 34.28125 1.34375 A 1.0001 1.0001 0 0 0 34.1875 1.34375 z M 44.5 2 C 46.444841 2 48 3.5551588 48 5.5 C 48 7.4448412 46.444841 9 44.5 9 C 42.555159 9 41 7.4448412 41 5.5 C 41 3.5551588 42.555159 2 44.5 2 z M 44.5 13 C 41.474279 13 39 15.474279 39 18.5 C 39 21.525721 41.474279 24 44.5 24 C 47.525721 24 50 21.525721 50 18.5 C 50 15.474279 47.525721 13 44.5 13 z M 44.5 15 C 46.444841 15 48 16.555159 48 18.5 C 48 20.444841 46.444841 22 44.5 22 C 42.555159 22 41 20.444841 41 18.5 C 41 16.555159 42.555159 15 44.5 15 z M 8 19 C 11.325553 19 14 21.674447 14 25 C 14 28.325553 11.325553 31 8 31 C 4.674447 31 2 28.325553 2 25 C 2 21.674447 4.674447 19 8 19 z M 44.5 26 C 41.474279 26 39 28.474279 39 31.5 C 39 34.525721 41.474279 37 44.5 37 C 47.525721 37 50 34.525721 50 31.5 C 50 28.474279 47.525721 26 44.5 26 z M 44.5 28 C 46.444841 28 48 29.555159 48 31.5 C 48 33.444841 46.444841 35 44.5 35 C 42.555159 35 41 33.444841 41 31.5 C 41 29.555159 42.555159 28 44.5 28 z M 44.5 39 C 41.474279 39 39 41.474279 39 44.5 C 39 47.525721 41.474279 50 44.5 50 C 47.525721 50 50 47.525721 50 44.5 C 50 41.474279 47.525721 39 44.5 39 z M 44.5 41 C 46.444841 41 48 42.555159 48 44.5 C 48 46.444841 46.444841 48 44.5 48 C 42.555159 48 41 46.444841 41 44.5 C 41 42.555159 42.555159 41 44.5 41 z"/>
</svg>
