<svg style="fill:white;" height="464pt" viewBox="0 0 464 464" width="464pt" xmlns="http://www.w3.org/2000/svg">
    <path d="m248 48h112c4.414062 0 8-3.585938 8-8v-32c0-4.414062-3.585938-8-8-8h-112c-4.414062 0-8 3.585938-8 8v32c0 4.414062 3.585938 8 8 8zm88-32h16v16h-16zm-80 0h16v16h-16zm0 0"/>
    <path d="m304 336c22.054688 0 40-17.945312 40-40v-16c0-22.054688-17.945312-40-40-40s-40 17.945312-40 40v16c0 22.054688 17.945312 40 40 40zm0 0"/>
    <path d="m288.28125 349.71875 15.71875 20.945312 15.71875-20.953124c-4.992188 1.464843-10.253906 2.289062-15.71875 2.289062s-10.726562-.816406-15.71875-2.28125zm0 0"/>
    <path d="m358.585938 369.0625-27.496094-7.855469-27.089844 36.128907-27.097656-36.136719-27.496094 7.855469c-10.246094 2.9375-17.40625 12.433593-17.40625 23.089843v7.855469h144v-7.855469c0-10.65625-7.160156-20.152343-17.414062-23.082031zm0 0"/>
    <path d="m56 240v-16c22.054688 0 40-17.945312 40-40v-8h96c8.824219 0 16-7.175781 16-16s-7.175781-16-16-16h-91.246094c-6.953125 0-13.816406 1.824219-19.851562 5.273438l-46.773438 26.726562h-34.128906v112h42.425781l37.917969 25.28125c6.59375 4.398438 14.265625 6.71875 22.183594 6.71875h25.472656v-128h-16.566406c-3.898438 27.105469-27.265625 48-55.433594 48zm0 0"/>
    <path d="m176 128h16c17.648438 0 32 14.351562 32 32s-14.351562 32-32 32h-16v240h256v-384h-49.472656c-3.3125 9.289062-12.113282 16-22.527344 16h-112c-10.414062 0-19.214844-6.710938-22.527344-16h-49.472656zm216 288h-176v-23.855469c0-17.769531 11.929688-33.578125 29.007812-38.472656l26.992188-7.703125v-4.082031c-14.488281-10.132813-24-26.910157-24-45.886719v-16c0-30.871094 25.128906-56 56-56s56 25.128906 56 56v16c0 18.992188-9.519531 35.777344-24.023438 45.902344l.007813 4.058594 27 7.710937c17.085937 4.894531 29.015625 20.703125 29.015625 38.472656zm-152-224v-16h144v16zm176 0h-16v-16h16zm0-32h-176v-16h176zm0-32h-176v-16h176zm-192-48h192v16h-192zm-32 0h16v16h-16zm0 0"/>
    <path d="m456 16h-72v16h64v416h-288v-256h-16v264c0 4.414062 3.585938 8 8 8h304c4.414062 0 8-3.585938 8-8v-432c0-4.40625-3.585938-8-8-8zm0 0"/>
    <path d="m160 32h64v-16h-72c-4.414062 0-8 3.585938-8 8v104h16zm0 0"/>
</svg>