<svg height="682pt" style="fill:white;" viewBox="-23 -21 682 682.66669" width="682pt" xmlns="http://www.w3.org/2000/svg">
    <path d="m578.207031 336.046875h-18.75v-18.75h18.75zm-31.25 0h-18.75v-18.75h18.75zm0 0"/>
    <path d="m543.832031 217.871094-13.097656-13.097656-13.257813 13.257812 36.136719 36.140625 36.132813-36.140625-13.257813-13.257812-13.90625 13.90625v-147.136719h-101.351562v18.75h82.601562zm0 0"/>
    <path d="m445.875 549.539062-13.257812-13.257812-36.136719 36.136719 36.136719 36.136719 13.257812-13.261719-13.507812-13.5h29.582031v-18.75h-29.582031zm0 0"/>
    <path d="m327.152344 411.242188 76.828125-76.828126h19.160156l-13.507813 13.5 13.261719 13.261719 36.132813-36.136719-36.132813-36.136718-13.261719 13.261718 13.507813 13.5h-19.160156l-76.828125-76.828124v-77.5625c37.140625-4.304688 66.675781-33.847657 70.984375-70.980469h38.09375v-18.75h-38.09375c-4.664063-40.214844-38.914063-71.542969-80.359375-71.542969-44.613282 0-80.910156 36.296875-80.910156 80.917969 0 41.445312 31.320312 75.6875 71.535156 80.355469v77.5625l-76.820313 76.828124h-19.160156l13.5-13.5-13.253906-13.261718-36.140625 36.136718 36.140625 36.136719 13.253906-13.261719-13.5-13.5h19.160156l76.820313 76.828126v93.59375h-58.203125v135.164062h135.164062v-52.144531h-18.75v33.394531h-97.664062v-97.664062h97.664062v39.269531h18.75v-58.019531h-58.210937zm-71.535156-330.324219c0-34.277344 27.882812-62.167969 62.160156-62.167969 34.285156 0 62.167968 27.890625 62.167968 62.167969 0 34.277343-27.882812 62.164062-62.167968 62.164062-34.277344 0-62.160156-27.886719-62.160156-62.164062zm62.160156 175.0625 69.0625 69.058593-69.0625 69.058594-69.054688-69.058594zm0 0"/>
    <path d="m611.152344 265.289062h-115.894532l-24.238281 24.238282v71.023437l24.238281 24.246094h48.574219v178.25h-56.882812v18.75h75.632812v-197.007813h48.570313l24.242187-24.242187v-71.019531zm5.492187 87.492188-13.261719 13.257812h-100.355468l-13.257813-13.257812v-55.484375l13.257813-13.257813h100.355468l13.261719 13.257813zm0 0"/>
    <path d="m189.6875 549.539062 13.5 13.503907h-111.457031v-76.953125h-18.75v95.703125h130.207031l-13.5 13.5 13.257812 13.261719 36.136719-36.136719-36.136719-36.136719zm0 0"/>
    <path d="m72.980469 461.089844h18.75v-76.300782h48.566406l24.246094-24.242187v-71.019531l-24.246094-24.246094h-115.886719l-24.242187 24.246094v71.019531l24.242187 24.242187h48.570313zm-54.0625-108.308594v-55.484375l13.253906-13.257813h100.363281l13.257813 13.257813v55.484375l-13.257813 13.257812h-100.363281zm0 0"/>
</svg>