<?xml version="1.0"?>
<svg xmlns="http://www.w3.org/2000/svg" viewBox="0 0 64 64" style="fill:white">
    <path d="M 48.099609 3.828125 C 46.764609 3.828125 45.508453 4.3509219 44.564453 5.2949219 L 41.029297 8.828125 C 40.250297 8.049125 38.980172 8.049125 38.201172 8.828125 L 32.544922 14.486328 C 31.764922 15.265328 31.764922 16.535453 32.544922 17.314453 L 32.59375 17.363281 L 31.048828 18.908203 L 16.857422 4.7167969 C 15.723422 3.5837969 13.748234 3.5837969 12.615234 4.7167969 L 2.7167969 14.615234 C 1.5467969 15.785234 1.5467969 17.687422 2.7167969 18.857422 L 16.896484 33.037109 L 5.5195312 44.398438 C 5.0155313 44.902437 4.7064375 45.57125 4.6484375 46.28125 L 3.9726562 54.677734 L 3.2695312 59.597656 C 3.2245313 59.909656 3.3297344 60.224266 3.5527344 60.447266 C 3.7417344 60.635266 3.9967656 60.740234 4.2597656 60.740234 C 4.3067656 60.740234 4.3543438 60.737469 4.4023438 60.730469 L 9.3261719 60.027344 L 17.765625 59.40625 C 18.482625 59.35325 19.156062 59.045109 19.664062 58.537109 L 31.039062 47.181641 L 45.144531 61.285156 C 45.729531 61.870156 46.496625 62.162109 47.265625 62.162109 C 48.033625 62.162109 48.801719 61.870156 49.386719 61.285156 L 59.285156 51.386719 C 60.455156 50.216719 60.455156 48.312578 59.285156 47.142578 L 45.191406 33.048828 L 46.740234 31.501953 C 47.111234 31.847953 47.588609 32.042969 48.099609 32.042969 C 48.633609 32.042969 49.135672 31.833078 49.513672 31.455078 L 55.171875 25.798828 C 55.951875 25.019828 55.951875 23.749703 55.171875 22.970703 L 58.707031 19.435547 C 59.651031 18.491547 60.171875 17.236391 60.171875 15.900391 C 60.171875 14.564391 59.651031 13.309234 58.707031 12.365234 L 51.636719 5.2949219 C 50.692719 4.3509219 49.435609 3.828125 48.099609 3.828125 z M 14.736328 5.8457031 C 14.995453 5.8457031 15.254359 5.9413594 15.443359 6.1308594 L 16.150391 6.8378906 L 14.029297 8.9570312 C 13.638297 9.3480313 13.638297 9.9800937 14.029297 10.371094 C 14.224297 10.566094 14.480328 10.664062 14.736328 10.664062 C 14.992328 10.664062 15.248359 10.566094 15.443359 10.371094 L 17.564453 8.2519531 L 19.685547 10.371094 L 16.150391 13.908203 C 15.759391 14.299203 15.759391 14.931266 16.150391 15.322266 C 16.345391 15.517266 16.601422 15.615234 16.857422 15.615234 C 17.113422 15.615234 17.369453 15.517266 17.564453 15.322266 L 21.099609 11.785156 L 23.222656 13.908203 L 21.101562 16.029297 C 20.710562 16.420297 20.710562 17.052359 21.101562 17.443359 C 21.296563 17.638359 21.552594 17.736328 21.808594 17.736328 C 22.064594 17.736328 22.320625 17.638359 22.515625 17.443359 L 24.636719 15.322266 L 26.757812 17.443359 L 23.222656 20.978516 C 22.831656 21.369516 22.831656 22.001578 23.222656 22.392578 C 23.417656 22.587578 23.673687 22.685547 23.929688 22.685547 C 24.185688 22.685547 24.441719 22.587578 24.636719 22.392578 L 28.171875 18.857422 L 29.632812 20.318359 L 18.310547 31.625 L 4.1308594 17.443359 C 3.7408594 17.053359 3.7408594 16.419297 4.1308594 16.029297 L 14.029297 6.1308594 C 14.217797 5.9413594 14.477203 5.8457031 14.736328 5.8457031 z M 48.099609 5.8574219 C 48.876859 5.8576719 49.655656 6.1410313 50.222656 6.7070312 L 57.292969 13.777344 C 57.858969 14.343344 58.171875 15.096438 58.171875 15.898438 C 58.171875 16.700437 57.858969 17.453531 57.292969 18.019531 L 53.757812 21.556641 L 48.099609 15.898438 L 42.443359 10.242188 L 45.978516 6.7070312 C 46.545516 6.1400312 47.322359 5.8571719 48.099609 5.8574219 z M 39.615234 10.242188 L 46.6875 17.3125 L 53.050781 23.677734 L 53.757812 24.384766 L 52.34375 25.798828 C 51.95275 25.407828 51.319687 25.407828 50.929688 25.798828 L 49.515625 27.212891 C 49.124625 27.603891 49.124625 28.235953 49.515625 28.626953 L 48.103516 30.042969 L 48.101562 30.041016 L 33.957031 15.898438 L 35.371094 14.484375 C 35.566094 14.679375 35.822125 14.777344 36.078125 14.777344 C 36.334125 14.777344 36.590156 14.679375 36.785156 14.484375 L 38.201172 13.070312 C 38.592172 12.679312 38.592172 12.04725 38.201172 11.65625 L 39.615234 10.242188 z M 41.029297 14.898438 C 40.773547 14.898562 40.517766 14.996406 40.322266 15.191406 L 38.908203 16.605469 C 38.517203 16.996469 38.517203 17.628531 38.908203 18.019531 C 39.103203 18.214531 39.359234 18.3125 39.615234 18.3125 C 39.871234 18.3125 40.127266 18.214531 40.322266 18.019531 L 41.736328 16.605469 C 42.127328 16.214469 42.127328 15.582406 41.736328 15.191406 C 41.540828 14.995906 41.285047 14.898313 41.029297 14.898438 z M 44.564453 18.435547 C 44.308453 18.435547 44.052922 18.533016 43.857422 18.728516 L 42.443359 20.142578 C 42.053359 20.533578 42.053359 21.166641 42.443359 21.556641 C 42.638359 21.751641 42.894391 21.849609 43.150391 21.849609 C 43.406391 21.849609 43.661422 21.751641 43.857422 21.556641 L 45.271484 20.142578 C 45.661484 19.751578 45.661484 19.118516 45.271484 18.728516 C 45.075984 18.533016 44.820453 18.435547 44.564453 18.435547 z M 34.009766 18.777344 L 45.322266 30.091797 L 19.025391 56.347656 L 18.072266 51.582031 L 34.664062 34.990234 C 35.055062 34.599234 35.055062 33.967172 34.664062 33.576172 C 34.273063 33.185172 33.642953 33.185172 33.251953 33.576172 L 16.658203 50.169922 L 14.302734 49.697266 L 13.830078 47.339844 L 27.59375 33.576172 C 27.98475 33.185172 27.98475 32.553109 27.59375 32.162109 C 27.20275 31.771109 26.570688 31.771109 26.179688 32.162109 L 12.417969 45.925781 L 7.7539062 44.994141 L 34.009766 18.777344 z M 48.101562 21.970703 C 47.845812 21.970703 47.590031 22.068172 47.394531 22.263672 L 45.980469 23.677734 C 45.589469 24.068734 45.589469 24.700797 45.980469 25.091797 C 46.175469 25.286797 46.4315 25.384766 46.6875 25.384766 C 46.9435 25.384766 47.199531 25.286797 47.394531 25.091797 L 48.808594 23.677734 C 49.198594 23.286734 49.198594 22.653672 48.808594 22.263672 C 48.613094 22.068172 48.357313 21.970703 48.101562 21.970703 z M 32.542969 26.212891 C 32.287094 26.212891 32.032891 26.310359 31.837891 26.505859 L 29.009766 29.335938 C 28.618766 29.726937 28.618766 30.357047 29.009766 30.748047 C 29.204766 30.943047 29.460797 31.042969 29.716797 31.042969 C 29.972797 31.042969 30.228828 30.943047 30.423828 30.748047 L 33.251953 27.919922 C 33.642953 27.528922 33.642953 26.896859 33.251953 26.505859 C 33.056453 26.310359 32.798844 26.212891 32.542969 26.212891 z M 43.777344 34.462891 L 44.435547 35.121094 L 42.314453 37.242188 C 41.923453 37.633187 41.923453 38.26525 42.314453 38.65625 C 42.509453 38.85125 42.765484 38.949219 43.021484 38.949219 C 43.277484 38.949219 43.533516 38.85125 43.728516 38.65625 L 45.849609 36.535156 L 47.972656 38.658203 L 44.435547 42.193359 C 44.044547 42.584359 44.044547 43.216422 44.435547 43.607422 C 44.630547 43.802422 44.886578 43.900391 45.142578 43.900391 C 45.398578 43.900391 45.654609 43.802422 45.849609 43.607422 L 49.386719 40.072266 L 51.507812 42.193359 L 49.384766 44.314453 C 48.993766 44.705453 48.993766 45.337516 49.384766 45.728516 C 49.579766 45.923516 49.835797 46.021484 50.091797 46.021484 C 50.347797 46.021484 50.603828 45.923516 50.798828 45.728516 L 52.921875 43.607422 L 55.042969 45.728516 L 51.505859 49.263672 C 51.114859 49.654672 51.114859 50.286734 51.505859 50.677734 C 51.700859 50.872734 51.956891 50.970703 52.212891 50.970703 C 52.468891 50.970703 52.724922 50.872734 52.919922 50.677734 L 56.455078 47.142578 L 57.869141 48.556641 C 58.259141 48.946641 58.259141 49.579703 57.869141 49.970703 L 47.970703 59.869141 C 47.592703 60.246141 46.934641 60.246141 46.556641 59.869141 L 32.453125 45.767578 L 43.777344 34.462891 z M 6.6113281 46.804688 L 11.894531 47.861328 L 12.470703 50.744141 C 12.549703 51.140141 12.860859 51.448344 13.255859 51.527344 L 16.136719 52.103516 L 17.205078 57.443359 L 9.59375 58.001953 L 6 54.410156 L 6.6113281 46.804688 z"/>
</svg>
