<?xml version="1.0"?>
<svg xmlns="http://www.w3.org/2000/svg" version="1" width="50" height="50" viewBox="0 0 50 50" style="">
    <path style="text-indent:0;text-align:start;line-height:normal;text-transform:none;block-progression:tb;-inkscape-font-specification:Bitstream Vera Sans" d="M 25 1 C 19.466667 1 15 5.4666667 15 11 L 15 13 L 8 13 L 7.09375 13 L 7 13.875 L 3 48.875 L 2.875 50 L 4 50 L 46 50 L 47.125 50 L 47 48.875 L 43 13.875 L 42.90625 13 L 42 13 L 35 13 L 35 11 C 35 5.4666667 30.533333 1 25 1 z M 25 3 C 29.466667 3 33 6.5333333 33 11 L 33 13 L 17 13 L 17 11 C 17 6.5333333 20.533333 3 25 3 z M 8.90625 15 L 15 15 L 15 17.28125 C 14.403104 17.627293 14 18.260396 14 19 C 14 20.104569 14.895431 21 16 21 C 17.104569 21 18 20.104569 18 19 C 18 18.260396 17.596896 17.627293 17 17.28125 L 17 15 L 33 15 L 33 17.28125 C 32.403104 17.627293 32 18.260396 32 19 C 32 20.104569 32.895431 21 34 21 C 35.104569 21 36 20.104569 36 19 C 36 18.260396 35.596896 17.627293 35 17.28125 L 35 15 L 41.09375 15 L 44.875 48 L 5.125 48 L 8.90625 15 z" overflow="visible" enable-background="accumulate" font-family="Bitstream Vera Sans"/>
</svg>
