<?xml version="1.0"?>
<svg xmlns="http://www.w3.org/2000/svg" version="1" viewBox="0 0 50 50" enable-background="new 0 0 50 50" style="fill:white">
    <path style="text-indent:0;text-align:start;line-height:normal;text-transform:none;block-progression:tb;-inkscape-font-specification:Bitstream Vera Sans" d="M 24.84375 0 A 1.0001 1.0001 0 0 0 24.59375 0.09375 L 0.59375 10.875 A 1.0001 1.0001 0 0 0 0 11.8125 L 0 16.3125 A 1.0001 1.0001 0 0 0 1.40625 17.21875 L 2 16.9375 L 2 27.6875 A 1.001098 1.001098 0 0 0 2 28.28125 L 2 49 A 1.0001 1.0001 0 0 0 3 50 L 24.8125 50 L 25.21875 50 L 47 50 A 1.0001 1.0001 0 0 0 48 49 L 48 28.1875 A 1.0001 1.0001 0 0 0 48 27.78125 L 48 16.9375 L 48.59375 17.21875 A 1.0001 1.0001 0 0 0 50 16.3125 L 50 11.8125 A 1.0001 1.0001 0 0 0 49.40625 10.875 L 25.40625 0.09375 A 1.0001 1.0001 0 0 0 24.9375 0 A 1.0001 1.0001 0 0 0 24.84375 0 z M 25 2.09375 L 48 12.4375 L 48 14.75 L 47.5625 14.5625 A 1.0001 1.0001 0 0 0 47.5 14.53125 L 47.46875 14.5 A 1.0001 1.0001 0 0 0 47.40625 14.46875 L 47.375 14.46875 A 1.0001 1.0001 0 0 0 47.28125 14.4375 L 25.65625 4.625 A 1.0001 1.0001 0 0 0 25.59375 4.59375 L 25.5625 4.5625 A 1.0001 1.0001 0 0 0 25 4.375 A 1.0001 1.0001 0 0 0 24.34375 4.625 L 2.8125 14.375 A 1.0001 1.0001 0 0 0 2.71875 14.40625 A 1.0001 1.0001 0 0 0 2.53125 14.5 A 1.0001 1.0001 0 0 0 2.4375 14.53125 L 2.40625 14.5625 A 1.0001 1.0001 0 0 0 2.375 14.59375 L 2 14.75 L 2 12.4375 L 25 2.09375 z M 24 6.96875 L 24 27 L 4 27 L 4 16.03125 L 9.1875 13.6875 A 1.0043849 1.0043849 0 0 0 10 14 L 18 14 A 1.0001 1.0001 0 1 0 18 12 L 12.90625 12 L 24 6.96875 z M 26 6.96875 L 37.09375 12 L 32 12 A 1.0001 1.0001 0 0 0 31.90625 12 A 1.001098 1.001098 0 0 0 32 14 L 40 14 A 1.0001 1.0001 0 0 0 40.75 13.65625 L 46 16.03125 L 46 27 L 26 27 L 26 6.96875 z M 4 29 L 24 29 L 24 48 L 4 48 L 4 29 z M 26 29 L 46 29 L 46 48 L 26 48 L 26 29 z M 9.71875 32 A 1.0043849 1.0043849 0 0 0 10 34 L 18 34 A 1.0001 1.0001 0 1 0 18 32 L 10 32 A 1.0001 1.0001 0 0 0 9.90625 32 A 1.001098 1.001098 0 0 0 9.8125 32 A 1.0043849 1.0043849 0 0 0 9.71875 32 z M 31.71875 32 A 1.0043849 1.0043849 0 0 0 32 34 L 40 34 A 1.0001 1.0001 0 1 0 40 32 L 32 32 A 1.0001 1.0001 0 0 0 31.90625 32 A 1.001098 1.001098 0 0 0 31.8125 32 A 1.0043849 1.0043849 0 0 0 31.71875 32 z"/>
</svg>
