<?xml version="1.0"?>
<svg xmlns="http://www.w3.org/2000/svg" width="50" height="50" viewBox="0 0 50 50" style="fill:white">
    <path style="text-indent:0;text-align:start;line-height:normal;text-transform:none;block-progression:tb;-inkscape-font-specification:Bitstream Vera Sans" d="M 19.875 3.40625 C 15.203288 3.492255 12.220404 5.3807765 10.9375 8.3125 C 9.7157028 11.104581 9.9893687 14.633048 10.875 18.28125 C 10.397706 18.838571 10.021163 19.58954 10.15625 20.71875 C 10.304101 21.947691 10.642843 22.822423 11.125 23.4375 C 11.389819 23.775324 11.739614 23.806548 12.0625 23.96875 C 12.239763 25.014549 12.531146 26.063959 12.96875 26.9375 C 13.220273 27.439587 13.502211 27.905233 13.78125 28.28125 C 13.904801 28.44774 14.087846 28.547293 14.21875 28.6875 C 14.22535 29.921109 14.23134 30.948655 14.125 32.25 C 13.799803 33.034118 13.042292 33.667411 11.8125 34.28125 C 10.543219 34.914799 8.8887426 35.500988 7.21875 36.21875 C 5.5487574 36.936512 3.8279868 37.811849 2.46875 39.1875 C 1.1095132 40.563151 0.14955281 42.449336 0 44.9375 L -0.0625 46 L 1 46 L 39 46 L 40.0625 46 L 40 44.9375 C 39.850777 42.450265 38.885246 40.563433 37.53125 39.1875 C 36.177254 37.811567 34.476183 36.936651 32.8125 36.21875 C 31.148817 35.500849 29.514452 34.914618 28.25 34.28125 C 27.036845 33.673577 26.268859 33.056176 25.9375 32.28125 C 25.827897 30.963068 25.836951 29.932241 25.84375 28.6875 C 25.976352 28.544123 26.157944 28.451145 26.28125 28.28125 C 26.55523 27.903753 26.818236 27.43945 27.0625 26.9375 C 27.488578 26.061932 27.795577 25.01134 27.96875 23.96875 C 28.283109 23.80644 28.616789 23.766894 28.875 23.4375 C 29.357157 22.822423 29.695899 21.947691 29.84375 20.71875 C 29.975563 19.624609 29.610546 18.902586 29.15625 18.34375 C 29.644491 16.757989 30.268136 14.193718 30.0625 11.5625 C 29.950263 10.126374 29.580976 8.6922373 28.71875 7.5 C 27.928648 6.4074918 26.647679 5.608904 25.03125 5.28125 C 23.981568 3.9193246 22.088357 3.40625 19.90625 3.40625 L 19.875 3.40625 z M 19.90625 5.40625 C 19.91884 5.40625 19.92497 5.4062044 19.9375 5.40625 C 21.95087 5.41358 23.253751 6.0041913 23.625 6.65625 L 23.875 7.0625 L 24.34375 7.125 C 25.734702 7.3182954 26.531476 7.8787686 27.09375 8.65625 C 27.656024 9.4337314 27.968737 10.519001 28.0625 11.71875 C 28.250027 14.118247 27.55999 16.910519 27.125 18.21875 L 26.875 19 L 27.5625 19.40625 C 27.51938 19.38008 27.943811 19.669422 27.84375 20.5 C 27.725601 21.482059 27.492343 21.989327 27.3125 22.21875 C 27.132657 22.448173 27.038847 22.436878 27.03125 22.4375 L 26.1875 22.5 L 26.09375 23.3125 C 26.00107 24.177237 25.653222 25.2339 25.25 26.0625 C 25.048389 26.4768 24.839738 26.840935 24.65625 27.09375 C 24.472762 27.346565 24.279907 27.487522 24.375 27.4375 L 23.84375 27.71875 L 23.84375 28.3125 C 23.84375 29.760155 23.78566 30.948497 23.9375 32.625 L 23.9375 32.75 L 24 32.875 C 24.57084 34.409948 25.891545 35.366336 27.34375 36.09375 C 28.795955 36.821164 30.465308 37.355526 32.03125 38.03125 C 33.597192 38.706974 35.03284 39.515652 36.09375 40.59375 C 36.937064 41.450727 37.468089 42.583507 37.75 44 L 2.25 44 C 2.5327598 42.584144 3.0592773 41.450951 3.90625 40.59375 C 4.9717632 39.51537 6.4274926 38.707113 8 38.03125 C 9.5725074 37.355387 11.230531 36.820982 12.6875 36.09375 C 14.144469 35.366518 15.491107 34.411434 16.0625 32.875 L 16.09375 32.75 L 16.125 32.625 C 16.276805 30.948905 16.21875 29.760607 16.21875 28.3125 L 16.21875 27.71875 L 15.6875 27.4375 C 15.77781 27.48488 15.563711 27.34805 15.375 27.09375 C 15.186289 26.839454 14.957477 26.476663 14.75 26.0625 C 14.335046 25.234175 13.997606 24.168759 13.90625 23.3125 L 13.8125 22.5 L 12.96875 22.4375 C 12.96115 22.436878 12.867343 22.44817 12.6875 22.21875 C 12.507657 21.989327 12.274399 21.482059 12.15625 20.5 C 12.056864 19.669219 12.480627 19.379999 12.4375 19.40625 L 13.09375 19 L 12.90625 18.28125 C 11.964795 14.658031 11.801904 11.363027 12.78125 9.125 C 13.757843 6.8932657 15.748064 5.4905767 19.90625 5.40625 z M 37 8 C 35.094532 8 33.292672 8.3536185 31.65625 9 A 1.0040202 1.0040202 0 0 0 32.375 10.875 C 33.776578 10.321381 35.345468 10 37 10 C 43.160223 10 48 14.276786 48 19.375 C 48 24.473214 43.160223 28.71875 37 28.71875 C 35.947505 28.71875 34.930135 28.6091 33.96875 28.375 A 1.0001 1.0001 0 0 0 32.96875 28.71875 C 32.96875 28.71875 31.83768 30.006179 30 30.59375 C 30.191593 30.143004 30.559443 29.577725 30.65625 29.21875 C 30.887169 28.362465 30.90625 27.71875 30.90625 27.71875 A 1.0001 1.0001 0 0 0 30.4375 26.875 C 30.201495 26.725316 29.970055 26.570607 29.75 26.40625 A 1.0001 1.0001 0 1 0 28.5625 28 C 28.65208 28.06691 28.75215 28.122799 28.84375 28.1875 C 28.8246 28.345049 28.84165 28.347672 28.75 28.6875 C 28.573169 29.343215 28.214514 30.285923 27.46875 31.34375 A 1.0001 1.0001 0 0 0 28.28125 32.90625 C 31.630626 32.9211 33.478825 30.988197 34.03125 30.375 C 34.993059 30.572476 35.972417 30.71875 37 30.71875 C 44.093777 30.71875 50 25.724786 50 19.375 C 50 13.025214 44.093777 8 37 8 z" overflow="visible" enable-background="accumulate" font-family="Bitstream Vera Sans"/>
</svg>
