<?xml version="1.0"?>
<svg xmlns="http://www.w3.org/2000/svg" width="50" height="50" viewBox="0 0 50 50" style="">
    <path style="text-indent:0;text-align:start;line-height:normal;text-transform:none;block-progression:tb;-inkscape-font-specification:Bitstream Vera Sans" d="M 29 0 C 27.35503 0 26 1.3550302 26 3 L 26 17 L 28 17 L 28 3 C 28 2.4349698 28.43497 2 29 2 L 47 2 C 47.563541 2 48 2.4355732 48 3 L 48 45 C 48 45.562937 47.562937 46 47 46 L 45 46 L 45 48 L 47 48 C 48.645063 48 50 46.645063 50 45 L 50 3 C 50 1.3544268 48.644459 0 47 0 L 29 0 z M 38 8 C 36.895431 8 36 8.8954305 36 10 C 36 11.104569 36.895431 12 38 12 C 39.104569 12 40 11.104569 40 10 C 40 8.8954305 39.104569 8 38 8 z M 16 18 C 14.354427 18 13 19.355541 13 21 L 13 24 L 3 24 C 1.3544268 24 0 25.355541 0 27 L 0 32.6875 A 1.001098 1.001098 0 0 0 0 33.28125 L 0 47 C 0 48.644459 1.3544268 50 3 50 L 41 50 C 42.645063 50 44 48.645063 44 47 L 44 33.1875 A 1.0001 1.0001 0 0 0 44 32.78125 L 44 27 C 44 25.354937 42.645063 24 41 24 L 31 24 L 31 21 C 31 19.354937 29.645063 18 28 18 L 16 18 z M 16 20 L 28 20 C 28.562937 20 29 20.437063 29 21 L 29 24 L 15 24 L 15 21 C 15 20.436459 15.435573 20 16 20 z M 3 26 L 41 26 C 41.562937 26 42 26.437063 42 27 L 42 32 L 37 32 C 37 30.908145 36.093084 30 35 30 L 32 30 C 30.906916 30 30 30.908145 30 32 L 14 32 C 14 30.908145 13.093084 30 12 30 L 9 30 C 7.9069156 30 7 30.908145 7 32 L 2 32 L 2 27 C 2 26.436459 2.4355732 26 3 26 z M 9 32 L 12 32 L 12 32.6875 A 1.001098 1.001098 0 0 0 12 33.28125 L 12 36 L 9 36 L 9 33.1875 A 1.0001 1.0001 0 0 0 9 32.78125 L 9 32 z M 32 32 L 35 32 L 35 32.6875 A 1.001098 1.001098 0 0 0 35 33.28125 L 35 36 L 32 36 L 32 33.1875 A 1.0001 1.0001 0 0 0 32 32.78125 L 32 32 z M 2 34 L 7 34 L 7 36 C 7 37.091855 7.9069156 38 9 38 L 12 38 C 13.093084 38 14 37.091855 14 36 L 14 34 L 30 34 L 30 36 C 30 37.091855 30.906916 38 32 38 L 35 38 C 36.093084 38 37 37.091855 37 36 L 37 34 L 42 34 L 42 47 C 42 47.562937 41.562937 48 41 48 L 3 48 C 2.4355732 48 2 47.563541 2 47 L 2 34 z" overflow="visible" enable-background="accumulate" font-family="Bitstream Vera Sans"/>
</svg>
