<?xml version="1.0"?>
<svg xmlns="http://www.w3.org/2000/svg" viewBox="0 0 50 50" style="">
    <path style="text-indent:0;text-align:start;line-height:normal;text-transform:none;block-progression:tb;-inkscape-font-specification:Bitstream Vera Sans" d="M 7.8125 3 A 1.0001 1.0001 0 0 0 7 4 L 7 46 A 1.0001 1.0001 0 0 0 8 47 L 42 47 A 1.0001 1.0001 0 0 0 43 46 L 43 4 A 1.0001 1.0001 0 0 0 42 3 L 8 3 A 1.0001 1.0001 0 0 0 7.90625 3 A 1.0001 1.0001 0 0 0 7.8125 3 z M 9 5 L 41 5 L 41 45 L 9 45 L 9 5 z M 16 11 L 13 14 L 15 14 L 15 29 L 13 29 L 16 32 L 19 29 L 17 29 L 17 14 L 19 14 L 16 11 z M 29 11 C 25.145666 11 22 14.145666 22 18 C 22 20.150252 22.878996 21.639908 23.625 22.90625 C 24.343099 24.125223 24.955393 25.154441 25 26.8125 A 1.0001 1.0001 0 0 0 25 27 A 1.0001 1.0001 0 0 0 25 27.09375 L 25 28 C 25 29.64497 26.35503 31 28 31 C 28 31.552285 28.447715 32 29 32 C 29.552285 32 30 31.552285 30 31 C 31.64497 31 33 29.64497 33 28 L 33 27.15625 A 1.0001 1.0001 0 0 0 33 27 A 1.0001 1.0001 0 0 0 33 26.90625 C 33.022951 25.189563 33.644014 24.125717 34.375 22.875 C 35.119918 21.600445 36 20.115576 36 18 C 36 14.145666 32.854334 11 29 11 z M 29 13 C 31.773666 13 34 15.226334 34 18 C 34 19.573424 33.380082 20.583055 32.625 21.875 C 31.9879 22.965079 31.271588 24.262217 31.0625 26 L 26.9375 26 C 26.729368 24.255971 26.012103 22.956482 25.375 21.875 C 24.621004 20.595092 24 19.619748 24 18 C 24 15.226334 26.226334 13 29 13 z M 26.8125 17 A 1.0001 1.0001 0 0 0 26 18 L 26 19 A 1.0001 1.0001 0 1 0 28 19 L 30 19 A 1.0001 1.0001 0 1 0 32 19 L 32 18 A 1.0001 1.0001 0 0 0 31 17 L 27 17 A 1.0001 1.0001 0 0 0 26.90625 17 A 1.0001 1.0001 0 0 0 26.8125 17 z M 27 28 L 31 28 C 31 28.56503 30.56503 29 30 29 L 28 29 C 27.43497 29 27 28.56503 27 28 z M 26 34 L 23 37 L 26 40 L 26 38 L 32 38 L 32 40 L 35 37 L 32 34 L 32 36 L 26 36 L 26 34 z"/>
</svg>
