<?xml version="1.0"?>
<svg xmlns="http://www.w3.org/2000/svg" viewBox="0 0 80 80" style="">
    <path d="M 36 6 C 34.35503 6 33 7.3550302 33 9 L 33 12 A 1 1 0 0 0 32 13 A 1 1 0 0 0 33 14 L 33 17 C 33 18.439349 34.037075 19.657602 35.398438 19.939453 C 35.592918 19.979718 35.794379 20 36 20 L 44 20 C 45.439349 20 46.657602 18.962925 46.939453 17.601562 C 46.979718 17.407082 47 17.205621 47 17 L 47 14 A 1 1 0 0 0 48 13 A 1 1 0 0 0 47 12 L 47 9 C 47 7.3550302 45.64497 6 44 6 L 36 6 z M 36 8 L 44 8 C 44.56503 8 45 8.4349698 45 9 L 45 17 C 45 17.56503 44.56503 18 44 18 L 36 18 C 35.43497 18 35 17.56503 35 17 L 35 9 C 35 8.8587424 35.026565 8.7257044 35.076172 8.6054688 C 35.120988 8.496845 35.191629 8.4043776 35.269531 8.3203125 C 35.29124 8.2969676 35.315924 8.2769577 35.339844 8.2558594 C 35.40339 8.1998146 35.473588 8.1514925 35.550781 8.1132812 C 35.581385 8.0981882 35.610151 8.0803458 35.642578 8.0683594 C 35.753633 8.0273042 35.872072 8 36 8 z M 13 12 A 1 1 0 0 0 12 13 A 1 1 0 0 0 13 14 A 1 1 0 0 0 14 13 A 1 1 0 0 0 13 12 z M 17 12 A 1 1 0 0 0 16 13 A 1 1 0 0 0 17 14 A 1 1 0 0 0 18 13 A 1 1 0 0 0 17 12 z M 21 12 A 1 1 0 0 0 20 13 A 1 1 0 0 0 21 14 A 1 1 0 0 0 22 13 A 1 1 0 0 0 21 12 z M 25 12 A 1 1 0 0 0 24 13 A 1 1 0 0 0 25 14 A 1 1 0 0 0 26 13 A 1 1 0 0 0 25 12 z M 29 12 A 1 1 0 0 0 28 13 A 1 1 0 0 0 29 14 A 1 1 0 0 0 30 13 A 1 1 0 0 0 29 12 z M 51 12 A 1 1 0 0 0 50 13 A 1 1 0 0 0 51 14 A 1 1 0 0 0 52 13 A 1 1 0 0 0 51 12 z M 55 12 A 1 1 0 0 0 54 13 A 1 1 0 0 0 55 14 A 1 1 0 0 0 56 13 A 1 1 0 0 0 55 12 z M 59 12 A 1 1 0 0 0 58 13 A 1 1 0 0 0 59 14 A 1 1 0 0 0 60 13 A 1 1 0 0 0 59 12 z M 63 12 A 1 1 0 0 0 62 13 A 1 1 0 0 0 63 14 A 1 1 0 0 0 64 13 A 1 1 0 0 0 63 12 z M 67 12 A 1 1 0 0 0 66 13 A 1 1 0 0 0 67 14 A 1 1 0 0 0 68 13 A 1 1 0 0 0 67 12 z M 13 16 A 1 1 0 0 0 12 17 A 1 1 0 0 0 13 18 A 1 1 0 0 0 14 17 A 1 1 0 0 0 13 16 z M 67 16 A 1 1 0 0 0 66 17 A 1 1 0 0 0 67 18 A 1 1 0 0 0 68 17 A 1 1 0 0 0 67 16 z M 13 20 A 1 1 0 0 0 12 21 A 1 1 0 0 0 13 22 A 1 1 0 0 0 14 21 A 1 1 0 0 0 13 20 z M 67 20 A 1 1 0 0 0 66 21 A 1 1 0 0 0 67 22 A 1 1 0 0 0 68 21 A 1 1 0 0 0 67 20 z M 13 24 A 1 1 0 0 0 12 25 A 1 1 0 0 0 13 26 A 1 1 0 0 0 14 25 A 1 1 0 0 0 13 24 z M 67 24 A 1 1 0 0 0 66 25 A 1 1 0 0 0 67 26 A 1 1 0 0 0 68 25 A 1 1 0 0 0 67 24 z M 13 28 A 1 1 0 0 0 12 29 A 1 1 0 0 0 13 30 A 1 1 0 0 0 14 29 A 1 1 0 0 0 13 28 z M 67 28 A 1 1 0 0 0 66 29 A 1 1 0 0 0 67 30 A 1 1 0 0 0 68 29 A 1 1 0 0 0 67 28 z M 13 32 A 1 1 0 0 0 12 33 L 9 33 C 7.3550302 33 6 34.35503 6 36 L 6 44 C 6 45.64497 7.3550302 47 9 47 L 12 47 A 1 1 0 0 0 13 48 A 1 1 0 0 0 14 47 L 17 47 C 18.439349 47 19.657602 45.962925 19.939453 44.601562 C 19.979718 44.407082 20 44.205621 20 44 L 20 36 C 20 35.794379 19.979718 35.592918 19.939453 35.398438 C 19.899189 35.203957 19.838087 35.01707 19.761719 34.837891 C 19.303509 33.762817 18.233728 33 17 33 L 14 33 A 1 1 0 0 0 13 32 z M 67 32 A 1 1 0 0 0 66 33 L 63 33 C 62.794379 33 62.592918 33.020282 62.398438 33.060547 C 61.207245 33.307167 60.26399 34.27137 60.046875 35.472656 C 60.015859 35.644269 60 35.820081 60 36 L 60 44 C 60 45.64497 61.35503 47 63 47 L 66 47 A 1 1 0 0 0 67 48 A 1 1 0 0 0 68 47 L 71 47 C 72.439349 47 73.657602 45.962925 73.939453 44.601562 C 73.979718 44.407082 74 44.205621 74 44 L 74 36 C 74 35.794379 73.979718 35.592918 73.939453 35.398438 C 73.697867 34.231555 72.768445 33.302133 71.601562 33.060547 C 71.407082 33.020282 71.205621 33 71 33 L 68 33 A 1 1 0 0 0 67 32 z M 9 35 L 17 35 C 17.56503 35 18 35.43497 18 36 L 18 44 C 18 44.56503 17.56503 45 17 45 L 9 45 C 8.4349698 45 8 44.56503 8 44 L 8 36 C 8 35.858742 8.0265649 35.725705 8.0761719 35.605469 C 8.120988 35.496845 8.1916285 35.404378 8.2695312 35.320312 C 8.2912401 35.296968 8.3159241 35.276958 8.3398438 35.255859 C 8.4033897 35.199815 8.4735884 35.151493 8.5507812 35.113281 C 8.581385 35.098188 8.6101513 35.080346 8.6425781 35.068359 C 8.7536331 35.027304 8.8720722 35 9 35 z M 63 35 L 71 35 C 71.56503 35 72 35.43497 72 36 L 72 44 C 72 44.56503 71.56503 45 71 45 L 63 45 C 62.43497 45 62 44.56503 62 44 L 62 36 C 62 35.858742 62.026565 35.725705 62.076172 35.605469 C 62.224993 35.244761 62.576228 35 63 35 z M 13 50 A 1 1 0 0 0 12 51 A 1 1 0 0 0 13 52 A 1 1 0 0 0 14 51 A 1 1 0 0 0 13 50 z M 67 50 A 1 1 0 0 0 66 51 A 1 1 0 0 0 67 52 A 1 1 0 0 0 68 51 A 1 1 0 0 0 67 50 z M 13 54 A 1 1 0 0 0 12 55 A 1 1 0 0 0 13 56 A 1 1 0 0 0 14 55 A 1 1 0 0 0 13 54 z M 67 54 A 1 1 0 0 0 66 55 A 1 1 0 0 0 67 56 A 1 1 0 0 0 68 55 A 1 1 0 0 0 67 54 z M 13 58 A 1 1 0 0 0 12 59 A 1 1 0 0 0 13 60 A 1 1 0 0 0 14 59 A 1 1 0 0 0 13 58 z M 67 58 A 1 1 0 0 0 66 59 A 1 1 0 0 0 67 60 A 1 1 0 0 0 68 59 A 1 1 0 0 0 67 58 z M 36 60 C 34.560651 60 33.342398 61.037075 33.060547 62.398438 C 33.020282 62.592918 33 62.794379 33 63 L 33 66 A 1 1 0 0 0 32 67 A 1 1 0 0 0 33 68 L 33 71 C 33 72.64497 34.35503 74 36 74 L 44 74 C 45.439349 74 46.657602 72.962925 46.939453 71.601562 C 46.979718 71.407082 47 71.205621 47 71 L 47 68 A 1 1 0 0 0 48 67 A 1 1 0 0 0 47 66 L 47 63 C 47 61.35503 45.64497 60 44 60 L 36 60 z M 13 62 A 1 1 0 0 0 12 63 A 1 1 0 0 0 13 64 A 1 1 0 0 0 14 63 A 1 1 0 0 0 13 62 z M 36 62 L 44 62 C 44.56503 62 45 62.43497 45 63 L 45 71 C 45 71.56503 44.56503 72 44 72 L 36 72 C 35.43497 72 35 71.56503 35 71 L 35 63 C 35 62.858742 35.026565 62.725705 35.076172 62.605469 C 35.224993 62.244761 35.576228 62 36 62 z M 67 62 A 1 1 0 0 0 66 63 A 1 1 0 0 0 67 64 A 1 1 0 0 0 68 63 A 1 1 0 0 0 67 62 z M 13 66 A 1 1 0 0 0 12 67 A 1 1 0 0 0 13 68 A 1 1 0 0 0 14 67 A 1 1 0 0 0 13 66 z M 17 66 A 1 1 0 0 0 16 67 A 1 1 0 0 0 17 68 A 1 1 0 0 0 18 67 A 1 1 0 0 0 17 66 z M 21 66 A 1 1 0 0 0 20 67 A 1 1 0 0 0 21 68 A 1 1 0 0 0 22 67 A 1 1 0 0 0 21 66 z M 25 66 A 1 1 0 0 0 24 67 A 1 1 0 0 0 25 68 A 1 1 0 0 0 26 67 A 1 1 0 0 0 25 66 z M 29 66 A 1 1 0 0 0 28 67 A 1 1 0 0 0 29 68 A 1 1 0 0 0 30 67 A 1 1 0 0 0 29 66 z M 51 66 A 1 1 0 0 0 50 67 A 1 1 0 0 0 51 68 A 1 1 0 0 0 52 67 A 1 1 0 0 0 51 66 z M 55 66 A 1 1 0 0 0 54 67 A 1 1 0 0 0 55 68 A 1 1 0 0 0 56 67 A 1 1 0 0 0 55 66 z M 59 66 A 1 1 0 0 0 58 67 A 1 1 0 0 0 59 68 A 1 1 0 0 0 60 67 A 1 1 0 0 0 59 66 z M 63 66 A 1 1 0 0 0 62 67 A 1 1 0 0 0 63 68 A 1 1 0 0 0 64 67 A 1 1 0 0 0 63 66 z M 67 66 A 1 1 0 0 0 66 67 A 1 1 0 0 0 67 68 A 1 1 0 0 0 68 67 A 1 1 0 0 0 67 66 z"/>
</svg>
