<?xml version="1.0" encoding="iso-8859-1"?>
<!-- Generator: Adobe Illustrator 19.0.0, SVG Export Plug-In . SVG Version: 6.00 Build 0)  -->
<svg version="1.1" id="Layer_1" xmlns="http://www.w3.org/2000/svg" x="0px" y="0px"
     viewBox="0 0 502 502" style="fill:white;" xml:space="preserve">
<g>
	<g>
		<g>
			<path d="M492,139.109H370.708c15.792-14.236,25.74-34.838,25.74-57.724c0-42.857-34.867-77.724-77.724-77.724
				c-29.032,0-54.38,16.01-67.724,39.655c-13.344-23.645-38.692-39.655-67.724-39.655c-42.857,0-77.724,34.867-77.724,77.724
				c0,22.886,9.947,43.488,25.74,57.724H10c-5.523,0-10,4.477-10,10v76.876c0,5.523,4.477,10,10,10h27.828v252.354
				c0,5.523,4.477,10,10,10h406.345c5.523,0,10-4.477,10-10V235.985H492c5.523,0,10-4.477,10-10v-76.876
				C502,143.586,497.523,139.109,492,139.109z M261,81.385c0-31.829,25.895-57.724,57.724-57.724
				c31.829,0,57.724,25.895,57.724,57.724s-25.895,57.724-57.724,57.724H261V81.385z M125.552,81.385
				c0-31.829,25.895-57.724,57.724-57.724S241,49.556,241,81.385v57.724h-57.724C151.447,139.109,125.552,113.214,125.552,81.385z
				 M444.173,478.339h-0.001H57.828V237.205h386.345V478.339z M482,159.109v56.876H20v-56.876L482,159.109L482,159.109z"/>
			<path d="M153.38,91.995c5.523,0,10-4.477,10-10c0-11.307,9.199-20.506,20.506-20.506c5.523,0,10-4.477,10-10s-4.477-10-10-10
				c-22.335,0-40.506,18.171-40.506,40.506C143.38,87.518,147.857,91.995,153.38,91.995z"/>
			<path d="M136.296,305.539h151.311c5.523,0,10-4.477,10-10s-4.477-10-10-10H136.296c-5.523,0-10,4.477-10,10
				S130.773,305.539,136.296,305.539z"/>
			<path d="M136.296,362.891h229.407c5.523,0,10-4.477,10-10s-4.477-10-10-10H136.296c-5.523,0-10,4.477-10,10
				S130.773,362.891,136.296,362.891z"/>
			<path d="M136.296,419.023h229.407c5.523,0,10-4.477,10-10s-4.477-10-10-10H136.296c-5.523,0-10,4.477-10,10
				S130.773,419.023,136.296,419.023z"/>
			<path d="M335.197,305.539h30.506c5.523,0,10-4.477,10-10s-4.477-10-10-10h-30.506c-5.523,0-10,4.477-10,10
				S329.674,305.539,335.197,305.539z"/>
		</g>
	</g>
</g>
</svg>
