<svg height="512pt" viewBox="0 0 512 512" width="512pt" xmlns="http://www.w3.org/2000/svg" style="fill:white;" >
    <path d="m160 32h320v16h-320zm0 0"/>
    <path d="m32 32h16v16h-16zm0 0"/>
    <path d="m64 32h16v16h-16zm0 0"/>
    <path d="m96 32h16v16h-16zm0 0"/>
    <path d="m0 0v432h176c0 44.183594 35.816406 80 80 80s80-35.816406 80-80h176v-432zm176 368h-20.6875l-24-24h-36.449219c-4.027343-15.601562-19.03125-25.777344-35.015625-23.746094s-27.96875 15.632813-27.96875 31.746094 11.984375 29.714844 27.96875 31.746094 30.988282-8.144532 35.015625-23.746094h29.824219l24 24h27.3125v32h-160v-136h60.6875l32 32h67.3125zm-96-16c0 8.835938-7.164062 16-16 16s-16-7.164062-16-16 7.164062-16 16-16 16 7.164062 16 16zm96-56h-60.6875l-32-32h-67.3125v-16h80.6875l32 32h47.3125zm144 32v104c0 35.347656-28.652344 64-64 64s-64-28.652344-64-64v-80.136719c6.402344 8.734375 14.582031 16.011719 24 21.351563v58.785156c0 22.058594 17.859375 39.957031 39.921875 40 10.863281.042969 21.277344-4.339844 28.839844-12.140625s11.621093-18.34375 11.238281-29.203125v-110.65625c-.015625-15.144531-8.582031-28.980469-22.128906-35.746094s-29.757813-5.300781-41.871094 3.785156v-27.238281c23.796875-9.722656 51.101562-4.203125 69.257812 13.992188 12.03125 11.960937 18.78125 28.238281 18.742188 45.207031zm-40.136719 104c-.867187 11.144531-8.59375 20.5625-19.351562 23.59375-7.03125 1.34375-14.296875-.519531-19.8125-5.082031-5.515625-4.566407-8.707031-11.351563-8.699219-18.511719zm-47.863281-16v-35.679688c7.765625 2.4375 15.859375 3.675782 24 3.679688 8.148438-.019531 16.242188-1.296875 24-3.785156v35.785156zm46.496094-103.847656c-3.316406 9.636718-12.414063 16.082031-22.605469 16.011718-10.191406-.066406-19.203125-6.632812-22.386719-16.316406 3.316406-9.636718 12.414063-16.082031 22.605469-16.011718 10.191406.066406 19.203125 6.632812 22.386719 16.316406zm-46.496094-68.34375v-50.464844c.347656-11.675781 8.242188-21.777344 19.488281-24.9375 7.03125-1.34375 14.296875.519531 19.8125 5.082031 5.515625 4.566407 8.707031 11.351563 8.699219 18.511719v51.808594c-15.628906-4.871094-32.371094-4.871094-48 0zm88 28.328125c-2.269531-3.070313-4.753906-5.976563-7.433594-8.695313-4.945312-4.933594-10.515625-9.195312-16.566406-12.679687v-58.761719c.007812-11.898438-5.28125-23.179688-14.433594-30.785156-9.148437-7.601563-21.207031-10.742188-32.902344-8.558594-18.964843 4.410156-32.457031 21.214844-32.664062 40.6875v110.65625c0 15.152344 8.558594 29 22.113281 35.777344 13.550781 6.777344 29.765625 5.3125 41.886719-3.777344v27.289062c-19.71875 8.015626-42.136719 5.6875-59.792969-6.207031-17.652343-11.894531-28.230469-31.792969-28.207031-53.082031v-109.871094c.535156-31.984375 23.320312-59.253906 54.695312-65.472656 18.40625-2.703125 37.074219 2.734375 51.148438 14.894531 14.078125 12.164063 22.164062 29.847657 22.15625 48.449219zm176 143.863281h-160v-32h67.3125l24-24h68.6875zm0-72h-75.3125l-24 24h-60.6875v-72h20.6875l32 32h107.3125zm0-32h-100.6875l-16-16h32l17.976562-17.976562c15.292969 5.558593 32.335938-1.113282 39.789063-15.582032 7.453125-14.464844 2.996094-32.21875-10.410156-41.445312-13.40625-9.226563-31.578125-7.054688-42.429688 5.074218-10.851562 12.125-11.003906 30.425782-.351562 42.730469l-11.199219 11.199219h-68.6875v-72h19.3125l48-48h13.824219c4.027343 15.601562 19.03125 25.777344 35.015625 23.746094s27.96875-15.632813 27.96875-31.746094-11.984375-29.714844-27.96875-31.746094-30.988282 8.144532-35.015625 23.746094h-20.449219l-48 48h-12.6875c.011719-23.234375-10.082031-45.324219-27.648438-60.527344-17.570312-15.203125-40.878906-22.019531-63.871093-18.671875-36.441407 5.101563-67.257813 41.085938-68.375 79.199219h-28.800781l-15.847657-15.847656c2.941407-4.875 4.511719-10.457032 4.542969-16.152344 0-17.671875-14.328125-32-32-32s-32 14.328125-32 32 14.328125 32 32 32c5.695312-.027344 11.277344-1.59375 16.152344-4.535156l20.535156 20.535156h35.3125v56h-40.6875l-32-32h-87.3125v-152h480zm-72-64c0-8.835938 7.164062-16 16-16s16 7.164062 16 16-7.164062 16-16 16-16-7.164062-16-16zm8-96c0-8.835938 7.164062-16 16-16s16 7.164062 16 16-7.164062 16-16 16-16-7.164062-16-16zm-312 8c0 8.835938-7.164062 16-16 16s-16-7.164062-16-16 7.164062-16 16-16 16 7.164062 16 16zm376-96h-480v-48h480zm0 0"/>
</svg>