<svg style="fill:white;" height="496pt" viewBox="0 0 496 496" width="496pt" xmlns="http://www.w3.org/2000/svg">
    <path d="m456 112h-112v-16c0-52.9375-43.0625-96-96-96s-96 43.0625-96 96v16h-112c-22.054688 0-40 17.945312-40 40v256c0 22.054688 17.945312 40 40 40h104v32h-32v16h272v-16h-32v-32h104c22.054688 0 40-17.945312 40-40v-256c0-22.054688-17.945312-40-40-40zm-144 48v-24c8.824219 0 16 7.175781 16 16s-7.175781 16-16 16h-.550781c.328125-2.625.550781-5.289062.550781-8zm-64-144c44.113281 0 80 35.886719 80 80v28.449219c-4.726562-2.753907-10.144531-4.449219-16-4.449219h-2.089844c-4.8125-13.921875-17.910156-24-33.445312-24-3.832032 0-7.609375.617188-11.242188 1.832031l-17.222656 5.734375-17.222656-5.742187c-3.632813-1.207031-7.417969-1.824219-11.25-1.824219-15.535156 0-28.632813 10.078125-33.449219 24h-2.078125c-5.855469 0-11.273438 1.695312-16 4.449219v-28.449219c0-44.113281 35.886719-80 80-80zm80 272v48h-160v-48h-16v48h-32v-37.886719c0-17.714843 11.886719-33.511719 28.910156-38.433593l30.984375-8.945313 24.890625 58.074219 43.214844-34.5625 43.207031 34.570312 24.890625-58.074218 30.980469 8.945312c17.035156 4.90625 28.921875 20.710938 28.921875 38.425781v37.886719h-32v-48zm-114.320312-47.007812 22.34375 22.34375-24.816407 19.847656-15.824219-36.917969zm71.113281 42.191406-24.816407-19.847656 22.34375-22.34375 18.289063 5.28125zm-12.792969-54.496094-24 24-24-24v-9.398438c7.414062 3.015626 15.511719 4.710938 24 4.710938s16.585938-1.695312 24-4.710938zm-24-20.6875c-26.472656 0-48-21.527344-48-48v-28.472656c0-10.765625 8.761719-19.527344 19.527344-19.527344 2.105468 0 4.175781.335938 6.175781 1l22.296875 7.433594 22.289062-7.433594c2-.664062 4.078126-1 6.175782-1 10.773437 0 19.535156 8.761719 19.535156 19.527344v28.472656c0 26.472656-21.527344 48-48 48zm-63.449219-40h-.550781c-8.824219 0-16-7.175781-16-16s7.175781-16 16-16v24c0 2.710938.222656 5.375.550781 8zm-144.550781-40h112v24c0 17.648438 14.351562 32 32 32h4.710938c4.144531 10.199219 10.832031 19.089844 19.289062 25.878906v16.105469l-63.519531 18.320313c-23.832031 6.878906-40.480469 29-40.480469 53.808593v53.886719h288v-53.886719c0-24.808593-16.648438-46.921875-40.480469-53.808593l-63.519531-18.320313v-16.105469c8.457031-6.789062 15.144531-15.679687 19.289062-25.878906h4.710938c17.648438 0 32-14.351562 32-32v-24h112c13.230469 0 24 10.769531 24 24v232h-341.574219l-24-16h-98.425781v-216c0-13.230469 10.769531-24 24-24zm416 304h-280v16h160v32h-176v-48h-120c-13.230469 0-24-10.769531-24-24v-24h93.574219l24 16h346.425781v8c0 13.230469-10.769531 24-24 24zm0 0"/>
    <path d="m96 400h16v16h-16zm0 0"/>
    <path d="m64 400h16v16h-16zm0 0"/>
    <path d="m32 400h16v16h-16zm0 0"/>
    <path d="m32 144h104v16h-104zm0 0"/>
    <path d="m32 176h104v16h-104zm0 0"/>
    <path d="m32 208h104v16h-104zm0 0"/>
    <path d="m408 352h56v16h-56zm0 0"/>
    <path d="m408 320h56v16h-56zm0 0"/>
    <path d="m408 288h56v16h-56zm0 0"/>
    <path d="m408 256h56v16h-56zm0 0"/>
</svg>