<svg style="fill:white;"  height="1171pt" viewBox="-39 0 1171 1171.2499" width="1171pt" xmlns="http://www.w3.org/2000/svg">
    <path d="m585.652344 253.917969c-53.898438 0-97.597656 43.695312-97.597656 97.59375 0 53.902343 43.699218 97.585937 97.597656 97.585937 53.894531 0 97.582031-43.683594 97.582031-97.585937-.066406-53.867188-43.710937-97.519531-97.582031-97.59375zm0 156.140625c-32.335938 0-58.558594-26.207032-58.558594-58.546875 0-32.339844 26.222656-58.558594 58.558594-58.558594 32.328125 0 58.546875 26.21875 58.546875 58.558594 0 32.339843-26.21875 58.546875-58.546875 58.546875zm0 0"/>
    <path d="m1073.59375 136.816406h-34.273438l24.25-24.253906c7.621094-7.625 7.621094-19.96875 0-27.597656l-55.21875-55.238282c-7.628906-7.625-19.992187-7.625-27.597656 0l-24.269531 24.261719v-34.277343c0-10.78125-8.738281-19.519532-19.523437-19.519532h-78.066407c-10.78125 0-19.515625 8.738282-19.515625 19.519532v34.277343l-24.261718-24.261719c-7.613282-7.625-19.972657-7.625-27.597657 0l-31.066406 31.070313c-65.164063-33.878906-136.582031-54.019531-209.839844-59.195313l-19.105469-1.601562-16.929687.429688c-58.425781 2.136718-115.699219 16.957031-167.839844 43.425781-138.648437 69.316406-226.027343 211.207031-225.515625 366.203125v72.667968l-114.3125 190.539063c-3.621094 6.015625-3.71875 13.527344-.25 19.65625 3.453125 6.125 9.941406 9.902344 16.980469 9.902344h122.203125l-11.859375 175.921875c-9.066406 52.050781 25.238281 101.78125 77.117187 111.789062 1.289063.25 2.597657.371094 3.90625.371094.707032 0 1.40625-.035156 2.113282-.105469l118.792968-12.894531v173.828125c0 10.78125 8.746094 19.515625 19.519532 19.515625h468.421875c10.785156 0 19.523437-8.734375 19.523437-19.515625v-193.925781l152.476563-376.886719c25.09375-69.789063 29.617187-145.320313 13.011719-217.601563 1.242187-.632812 2.414062-1.402343 3.484374-2.308593l55.21875-55.226563c7.621094-7.628906 7.621094-19.980468 0-27.609375l-24.25-24.257812h34.273438c10.773438 0 19.511719-8.734375 19.511719-19.515625v-78.070313c0-10.78125-8.738281-19.515625-19.511719-19.515625zm-118.222656 430.269532-153.59375 379.714843c-1.070313 2.78125-1.484375 5.761719-1.199219 8.722657 0 .390624-.238281.730468-.238281 1.140624v175.660157h-429.390625v-175.765625c0-.417969-.21875-.761719-.226563-1.179688-.027344-.410156.179688-.855468.121094-1.324218-.246094-1.164063-.609375-2.320313-1.082031-3.433594-.1875-.738282-.425781-1.46875-.710938-2.183594-.816406-1.871094-1.957031-3.605469-3.351562-5.113281-.164063-.195313-.222657-.445313-.40625-.625-.175781-.175781-.207031-.136719-.316407-.234375-1.230468-1.195313-2.613281-2.203125-4.132812-3.023438l-.371094-.191406c-3.363281-1.96875-7.261718-2.832031-11.140625-2.472656l-137.347656 14.863281c-30.308594-7.621094-49.324219-37.65625-43.269531-68.316406l13.464844-198.703125c.75-10.757813-7.363282-20.078125-18.109376-20.824219-1.625-.140625-109.902343 0-109.902343 0l99.351562-165.605469c.183594-.414062.332031-.84375.453125-1.273437.570313-1.160157 1.007813-2.386719 1.316406-3.644531.386719-1.273438.65625-2.589844.78125-3.914063 0-.445313.25-.835937.25-1.300781v-77.421875c-.484374-140.515625 78.6875-269.167969 204.347657-332.066407 47.269531-23.980468 99.191406-37.402343 152.164062-39.34375h15.476563c70.015625 2.710938 138.691406 20.085938 201.558594 51.046876-3.667969 7.421874-2.222657 16.347656 3.609374 22.230468l24.292969 24.3125h-35.496093c-5.460938.039063-10.644532 2.367188-14.289063 6.441406-7.628906-6.207031-18.726563-5.671874-25.71875 1.25l-18.546875 18.53125v-26.222656c0-10.785156-8.738281-19.519531-19.519531-19.519531h-117.105469c-10.78125 0-19.515625 8.734375-19.515625 19.519531v26.222656l-18.546875-18.53125c-7.613281-7.617187-19.96875-7.617187-27.585938 0l-82.804687 82.792969c-7.617187 7.628907-7.617187 19.980469 0 27.605469l18.523437 18.53125h-26.214843c-10.777344 0-19.515625 8.734375-19.515625 19.515625v117.105469c0 10.785156 8.738281 19.523437 19.515625 19.523437h26.214843l-18.523437 18.539063c-7.617187 7.621094-7.617187 19.980468 0 27.601562l82.804687 82.789063c7.617188 7.621093 19.972657 7.621093 27.585938 0l18.546875-18.523438v26.214844c0 10.777344 8.734375 19.519531 19.515625 19.519531h117.105469c10.78125 0 19.519531-8.742187 19.519531-19.519531v-26.214844l18.546875 18.523438c7.613281 7.621093 19.976563 7.621093 27.585937 0l82.796876-82.789063c7.628906-7.621094 7.628906-19.980468 0-27.601562l-18.515626-18.539063h26.207032c10.78125 0 19.515625-8.738281 19.515625-19.523437v-53.785156l19.523437-19.515626v34.265626c0 10.785156 8.734375 19.519531 19.515625 19.519531h78.066407c10.785156 0 19.523437-8.734375 19.523437-19.519531v-34.265626c26.214844 74.609376 25.816406 155.976563-1.113281 230.328126zm-243.851563-268.738282c.097657.265625.605469 1.679688.71875 1.945313 2.980469 7.378906 10.140625 12.191406 18.097657 12.191406h50.492187v78.074219h-50.492187c-7.957032 0-15.117188 4.835937-18.097657 12.199218l-.800781 2.15625c-3.117188 7.335938-1.457031 15.839844 4.203125 21.46875l35.613281 35.640626-55.183594 55.195312-35.644531-35.71875c-5.90625-5.246094-14.207031-6.8125-21.605469-4.117188-.273437 0-1.679687.605469-1.953124.726563-7.382813 2.976563-12.199219 10.136719-12.199219 18.082031v50.496094h-78.054688v-50.496094c0-7.945312-4.816406-15.105468-12.199219-18.082031l-2.144531-.800781c-7.347656-3.128906-15.84375-1.460938-21.472656 4.191406l-35.632813 35.621094-55.195312-55.203125 35.609375-35.636719c5.246094-5.894531 6.828125-14.191406 4.121094-21.601562 0-.28125-.605469-1.675782-.730469-1.960938-2.964844-7.335938-10.085938-12.140625-18.007812-12.175781h-50.488282v-78.066407h50.488282c7.957031 0 15.117187-4.828124 18.097656-12.203124l.800781-2.140626c3.113281-7.34375 1.464844-15.84375-4.199219-21.480468l-35.613281-35.625 55.1875-55.195313 35.648437 35.621094c5.890626 5.226563 14.191407 6.8125 21.597657 4.109375.277343-.101562 1.679687-.609375 1.957031-.714844 7.335938-2.988281 12.148438-10.097656 12.175781-18.011718v-50.503907h78.074219v50.503907c0 7.941406 4.820312 15.105468 12.191406 18.082031l2.148438.796875c7.34375 3.121094 15.847656 1.457031 21.472656-4.1875l35.644531-35.621094 55.183594 55.199219-35.6875 35.625c-5.242187 5.902343-6.828125 14.203125-4.121094 21.617187zm342.554688-83.457031h-45.871094c-7.882813.003906-14.988281 4.738281-18.011719 12.015625l-4.707031 11.363281c-3.015625 7.296875-1.335937 15.675781 4.242187 21.253907l32.464844 32.453124-27.644531 27.644532-32.460937-32.519532c-5.578126-5.570312-13.960938-7.25-21.25-4.230468l-11.355469 4.699218c-7.304688 3.035157-12.046875 10.167969-12.027344 18.078126v45.863281h-39.039063v-45.863281c0-7.882813-4.738281-14.988282-12.023437-18.019532l-11.355469-4.699218c-7.289062-3.011719-15.675781-1.339844-21.265625 4.238281l-13.914062 13.90625v-8.121094c0-10.78125-8.734375-19.515625-19.515625-19.515625h-26.207032l18.515626-18.53125c7.628906-7.625 7.628906-19.976562 0-27.605469l-50.855469-50.953125c0-.183594.097656-.3125.097656-.496094h45.867187c7.894532 0 15.019532-4.757812 18.023438-12.050781l4.695312-11.3125c3.015626-7.296875 1.347657-15.695312-4.242187-21.269531l-32.554687-32.453125 27.558593-27.5625 32.53125 32.441406c5.589844 5.578125 13.984375 7.25 21.289063 4.226563l11.296875-4.679688c7.320312-3.03125 12.082031-10.175781 12.058593-18.101562v-45.863282h39.039063v45.863282c0 7.882812 4.742187 14.992187 12.027344 18.019531l11.355469 4.699219c7.269531 3.039062 15.65625 1.386718 21.25-4.164063l32.460937-32.519531 27.644531 27.640625-32.523437 32.453125c-5.546875 5.589844-7.199219 13.941406-4.183594 21.214844l4.707031 11.367187c3.011719 7.28125 10.125 12.039063 18.011719 12.050781h45.871094zm0 0"/>
    <path d="m897.929688 117.296875c-43.109376 0-78.074219 34.957031-78.074219 78.074219 0 43.121094 34.964843 78.066406 78.074219 78.066406 43.117187 0 78.070312-34.945312 78.070312-78.066406 0-43.117188-34.953125-78.074219-78.070312-78.074219zm0 117.105469c-21.554688 0-39.035157-17.460938-39.035157-39.03125 0-21.5625 17.480469-39.039063 39.035157-39.039063 21.5625 0 39.03125 17.476563 39.03125 39.039063 0 21.570312-17.46875 39.03125-39.03125 39.03125zm0 0"/>
</svg>